<svg width="26" height="26" viewBox="0 0 26 26" fill="none" xmlns="http://www.w3.org/2000/svg">
<g clip-path="url(#clip0_124_11464)">
<path d="M11.4436 12.3664C11.4391 11.6948 11.4346 11.0232 11.4346 10.3561C11.4346 9.26812 11.4391 8.18012 11.4301 7.09212C11.4301 6.91751 11.4753 6.86826 11.6561 6.86826C12.8995 6.87721 14.1429 6.87273 15.3817 6.86826C15.5038 6.86826 15.5942 6.8996 15.6892 6.97571C17.0275 8.05476 18.3658 9.12484 19.6996 10.2039C19.7494 10.2442 19.8443 10.271 19.8217 10.3472C19.7991 10.4233 19.7042 10.3964 19.6409 10.3964C18.6914 10.3964 17.7419 10.3964 16.7969 10.4009C16.6839 10.4009 16.598 10.3606 16.5121 10.2934C15.6485 9.64869 14.7804 9.00395 13.9123 8.35922C13.8535 8.31444 13.7947 8.27415 13.6817 8.19803C13.6817 9.14275 13.6817 10.0427 13.6817 10.9382C13.6229 10.9964 13.5506 11.0009 13.4737 11.0009C12.9673 11.0232 12.4564 11.0501 11.95 11.077C11.8912 11.0814 11.8325 11.0859 11.7692 11.0904C11.5883 11.0949 11.5295 11.1799 11.5386 11.359C11.5521 11.5963 11.5476 11.8336 11.5386 12.0709C11.534 12.1605 11.5431 12.25 11.5069 12.3351C11.4934 12.3575 11.4753 12.3709 11.4436 12.3664Z" fill="#E41180"/>
<path d="M9.98318 15.3215C9.9877 15.4872 9.99223 15.6484 9.99675 15.814C10.0013 15.8857 9.97414 15.9394 9.91536 15.9886C9.31402 16.4498 8.7172 16.9155 8.12038 17.3811C7.61851 17.408 7.11663 17.4393 6.61476 17.4617C5.72857 17.502 4.84239 17.5244 3.9562 17.5826C3.82056 17.5915 3.68492 17.605 3.56284 17.5199C2.92533 16.9423 2.31042 16.3513 1.70003 15.7469C1.65482 15.5902 1.7769 15.5857 1.86733 15.5812C2.04818 15.5678 2.22903 15.5319 2.40537 15.5364C2.91176 15.5454 3.41363 15.4558 3.91551 15.4872C4.1054 15.5006 4.28174 15.3931 4.47163 15.4603C4.83334 15.7961 5.19957 16.1274 5.55224 16.4722C5.66528 16.5796 5.7331 16.5976 5.86422 16.4901C6.33444 16.1095 6.81822 15.7424 7.29749 15.3708C7.37435 15.3439 7.45574 15.3215 7.53712 15.317C8.2515 15.2991 8.9704 15.2633 9.68477 15.2185C9.79781 15.2051 9.91536 15.2051 9.98318 15.3215Z" fill="#45307F"/>
<path d="M4.23206 10.7053C4.81531 10.2352 5.39405 9.7651 5.9773 9.29945C6.9494 8.52487 7.92149 7.75477 8.89359 6.97571C8.98401 6.89959 9.07896 6.86377 9.19652 6.86377C9.52206 6.86825 9.84307 6.85929 10.1686 6.85034C10.2952 6.84586 10.3404 6.88168 10.3404 7.01153C10.3314 7.43687 10.3359 7.86222 10.3404 8.28309C10.3404 8.36369 10.3223 8.42637 10.259 8.4801C9.33668 9.21886 8.41884 9.9621 7.49648 10.7053C6.84993 10.7322 6.20789 10.7546 5.56134 10.7994C5.19963 10.8262 4.83792 10.7949 4.48073 10.8486C4.3677 10.8665 4.26823 10.8262 4.23206 10.7053Z" fill="#E41180"/>
<path d="M23.6784 13.4007C23.9497 13.6112 24.2165 13.8261 24.4878 14.0365C24.5601 14.0947 24.5918 14.135 24.5059 14.2066C24.2843 14.4036 24.0989 14.6409 23.8548 14.82C23.5202 14.8917 23.1811 14.8738 22.8465 14.8872C22.322 14.9096 21.7976 14.9275 21.2686 14.9499C20.4457 14.9857 19.6183 15.0215 18.7954 15.0618C18.2664 15.0842 17.7328 15.1693 17.1993 15.1021C16.7653 14.6992 16.3448 14.2872 15.9424 13.8574C15.9469 13.7097 16.0735 13.7007 16.1685 13.6962C16.4307 13.6917 16.6929 13.647 16.9552 13.6425C18.1759 13.6291 19.3877 13.5216 20.6084 13.4992C21.2866 13.4858 21.9603 13.4365 22.6385 13.4186C22.9867 13.4007 23.3303 13.3291 23.6784 13.4007Z" fill="#822083"/>
<path d="M15.2235 23.3315C14.3735 24.1822 13.5189 25.0284 12.6779 25.888C12.5287 26.0403 12.4474 26.0268 12.3072 25.8836C12.0359 25.6015 11.7511 25.3418 11.4707 25.0687C11.421 24.5493 11.4617 24.0299 11.4481 23.5061C11.4436 23.3494 11.5702 23.3583 11.6742 23.3494C11.9681 23.327 12.262 23.3315 12.5513 23.3136C13.3381 23.2598 14.1293 23.2195 14.916 23.2151C15.0291 23.2195 15.1692 23.1792 15.2235 23.3315Z" fill="#E32024"/>
<path d="M22.4125 16.2483C21.8609 16.799 21.3138 17.3497 20.7622 17.896C20.7079 17.9497 20.6537 17.9945 20.5949 18.0437C20.4231 18.1154 20.2377 18.093 20.0614 18.1019C19.3877 18.1288 18.7095 18.1736 18.0358 18.1736C17.9634 18.1736 17.8504 18.1915 17.8956 18.0527C18.497 17.4393 19.1209 16.8438 19.7539 16.2617C20.0207 16.1812 20.301 16.2215 20.5768 16.1946C21.1239 16.1409 21.671 16.1364 22.218 16.1319C22.2994 16.1364 22.4215 16.0871 22.4125 16.2483Z" fill="#3F3183"/>
<path d="M22.4532 8.47562C22.4532 9.40244 22.4532 10.3337 22.4532 11.3143C22.2905 11.1934 22.1593 11.0949 22.0327 11.0009C21.0923 10.2845 20.1473 9.5681 19.2069 8.85172C19.1707 8.82486 19.1436 8.79352 19.1074 8.76217C19.0984 8.60994 19.2204 8.60547 19.3199 8.59651C19.8851 8.56517 20.4548 8.5204 21.0199 8.50697C21.4178 8.49353 21.8112 8.43533 22.2091 8.45324C22.295 8.44876 22.3764 8.43085 22.4532 8.47562Z" fill="#DE2027"/>
<path d="M22.4125 16.2483C22.4034 16.1946 22.3718 16.1632 22.3175 16.1811C22.1276 16.2483 21.9287 16.2125 21.7388 16.2125C21.2369 16.217 20.7396 16.2394 20.2422 16.302C20.0749 16.3244 19.9167 16.2573 19.7539 16.2617C20.084 15.9349 20.4095 15.6125 20.7441 15.2812C20.6808 15.2051 20.5994 15.2409 20.5316 15.2409C19.5233 15.2364 18.5151 15.2364 17.5068 15.2409C17.3757 15.2409 17.2672 15.223 17.2039 15.0976C17.4842 14.9991 17.7826 15.0573 18.072 15.0126C18.3794 14.9633 18.7004 14.9991 19.0169 14.9678C19.4871 14.9185 19.9619 14.932 20.4321 14.9141C21.246 14.8782 22.0598 14.8379 22.8782 14.8156C23.2037 14.8066 23.5293 14.7484 23.8593 14.8111C23.3936 15.3125 22.9189 15.7961 22.4125 16.2483Z" fill="#542B84"/>
<path d="M13.6455 21.7241C13.6545 21.8405 13.6636 21.9525 13.6726 22.1002C13.8716 21.9166 14.0524 21.7555 14.2333 21.5898C14.3508 21.5092 14.482 21.5629 14.604 21.5495C15.237 21.4734 15.87 21.4734 16.5075 21.4331C16.6206 21.4241 16.7291 21.4152 16.8421 21.4062C16.9416 21.3973 17.0411 21.3973 17.0908 21.5092C16.7562 21.8674 16.4126 22.2077 16.0509 22.539C15.7705 22.5927 15.4857 22.5793 15.2054 22.6017C14.9612 22.6196 14.7125 22.6285 14.4639 22.633C13.5551 22.6509 12.6508 22.7315 11.7465 22.736C11.4843 22.736 11.4617 22.7136 11.4481 22.4942C11.4481 22.3375 11.4481 22.1808 11.4481 22.0241C11.4481 21.7823 11.4888 21.7196 11.7194 21.7107C12.0223 21.6973 12.3162 21.648 12.6192 21.6525C12.8769 21.657 13.1301 21.6659 13.3878 21.6256C13.4918 21.6077 13.5912 21.6167 13.6455 21.7241Z" fill="#B8213A"/>
<path d="M23.6785 13.4007C23.6469 13.4142 23.6107 13.4365 23.579 13.441C23.1359 13.4589 22.6929 13.4679 22.2543 13.4903C21.4314 13.5261 20.604 13.5619 19.7811 13.5888C19.1662 13.6067 18.5513 13.6425 17.9409 13.6783C17.3486 13.7141 16.7563 13.7186 16.1685 13.7589C16.0826 13.7634 16.0057 13.7813 15.9515 13.8574C15.6983 13.5888 15.4451 13.3156 15.1874 13.0425C15.2462 13.0425 15.323 13.0425 15.4044 13.0425C17.864 13.0425 20.3237 13.0515 22.7788 13.0336C23.154 13.0246 23.4344 13.1366 23.6785 13.4007Z" fill="#991C82"/>
<path d="M4.23207 10.7053C4.34059 10.7859 4.4491 10.8307 4.58474 10.7725C4.62543 10.7546 4.67517 10.7591 4.71586 10.7591C5.22678 10.7456 5.73769 10.7591 6.24408 10.7009C6.61031 10.6606 6.98107 10.7188 7.33825 10.6292C7.40155 10.6113 7.47842 10.6113 7.49198 10.7098C6.94942 11.171 6.39781 11.6277 5.82812 12.062C5.61561 12.1157 5.39407 12.1068 5.18156 12.1202C4.81533 12.1426 4.44458 12.156 4.07835 12.1694C3.62169 12.1829 3.16051 12.2097 2.70385 12.2411C2.61342 12.2455 2.4597 12.3127 2.47778 12.1112C3.04747 11.6187 3.63525 11.1576 4.23207 10.7053Z" fill="#BB107F"/>
<path d="M4.15066 13.4276C3.91102 13.6291 3.66687 13.8305 3.42724 14.032C3.16048 14.2514 3.16048 14.2693 3.43176 14.4663C3.45889 14.6499 3.30968 14.6186 3.21473 14.6275C2.88467 14.6499 2.55461 14.6499 2.22907 14.6589C1.69103 14.6678 1.15751 14.7663 0.619467 14.6992C0.434091 14.529 0.253236 14.3544 0.0633387 14.1843C-0.00448181 14.1216 -0.0225673 14.0768 0.0633387 14.0141C0.312014 13.8261 0.556168 13.6335 0.800322 13.441C1.04448 13.3962 1.29315 13.3962 1.53278 13.3873C2.25168 13.3649 2.97058 13.338 3.68948 13.2933C3.80251 13.2843 3.91555 13.2798 4.02406 13.2977C4.09188 13.3112 4.19135 13.3067 4.15066 13.4276Z" fill="#7C2283"/>
<path d="M5.27651 8.91441C4.26372 9.7069 3.24189 10.4904 2.20198 11.2516C2.11607 11.2516 2.13868 11.1844 2.13868 11.1352C2.13868 10.4546 2.1432 9.77854 2.13416 9.09798C2.13416 8.94127 2.21554 8.90098 2.34214 8.90098C2.92087 8.89202 3.49961 8.81591 4.07834 8.81143C4.40388 8.80695 4.7249 8.7577 5.04592 8.76666C5.14087 8.76666 5.29007 8.72636 5.27651 8.91441Z" fill="#E32024"/>
<path d="M3.56738 17.5109C4.39027 17.4796 5.21768 17.4661 6.04057 17.4169C6.65548 17.3766 7.26586 17.3587 7.88077 17.3363C7.96215 17.3318 8.04806 17.3318 8.1204 17.3766C7.86721 17.5826 7.61853 17.793 7.36081 17.99C7.26586 18.0616 7.29299 18.1198 7.35177 18.187C7.39698 18.2363 7.44672 18.281 7.49645 18.3258C7.51906 18.4959 7.3789 18.4736 7.29299 18.478C7.03075 18.4915 6.76851 18.5138 6.50627 18.5183C5.98632 18.5273 5.47088 18.59 4.95092 18.5765C4.82884 18.5721 4.71129 18.5721 4.60278 18.5049C4.24107 18.1825 3.89292 17.8602 3.56738 17.5109Z" fill="#6A2C69"/>
<path d="M17.8956 18.0572C17.9001 18.1064 17.9227 18.1378 17.9815 18.1333C18.6461 18.0885 19.3108 18.0527 19.9754 18.0482C20.1834 18.0482 20.3869 17.9631 20.5948 18.0482C20.1744 18.4915 19.7448 18.9258 19.2882 19.3377C19.1977 19.3511 19.1118 19.3735 19.0214 19.378C18.298 19.3825 17.5791 19.4049 16.8557 19.4765C16.7336 19.4899 16.6115 19.4899 16.5437 19.3556C16.9868 18.9079 17.4299 18.4736 17.8956 18.0572Z" fill="#6A2C69"/>
<path d="M11.4436 21.1331C11.4391 20.5197 11.4346 19.9108 11.4301 19.2974C11.4301 17.9766 11.4301 16.6557 11.4301 15.3349C11.4301 15.2543 11.4391 15.1737 11.4391 15.0887C11.4572 14.8872 11.4527 14.6857 11.4436 14.4842C11.4391 14.3454 11.4843 14.2738 11.629 14.2693C12.2529 14.2469 12.8724 14.1798 13.4963 14.1977C13.6229 14.2022 13.6681 14.2514 13.6636 14.3768C13.6591 14.4932 13.6546 14.6141 13.6681 14.735C13.6681 15.9618 13.6727 17.1841 13.6681 18.4109C13.6681 19.1362 13.6546 19.866 13.6455 20.5913C13.6184 20.5734 13.6003 20.551 13.5913 20.5242C13.537 20.0451 13.5732 19.5615 13.5687 19.078C13.5596 18.7243 13.5596 18.3706 13.5687 18.0169C13.5596 17.3453 13.5687 16.6781 13.5641 16.0065C13.5641 15.7021 13.5461 15.6976 13.2476 15.6976C12.7277 15.6976 12.2123 15.7603 11.6968 15.7692C11.5521 15.7737 11.5386 15.8543 11.5386 15.9573C11.534 16.2259 11.5386 16.4946 11.534 16.7632C11.534 17.193 11.5386 17.6273 11.5295 18.0572C11.5386 18.4288 11.5386 18.7959 11.5295 19.1675C11.5386 19.669 11.5386 20.166 11.5295 20.6674C11.5114 20.8242 11.6154 21.0033 11.4436 21.1331Z" fill="#752382"/>
<path d="M5.272 3.10727C5.57494 3.40278 5.87335 3.70276 6.17628 3.99826C5.9276 4.12363 5.65632 4.08781 5.39408 4.10124C5.00524 4.11915 4.62093 4.14602 4.23661 4.18631C4.09193 4.21765 4.02863 4.09677 3.9382 4.02513C3.86586 3.96692 3.81612 3.87737 3.7257 3.83708C3.66692 3.99826 3.79804 4.19527 3.6217 4.32959C3.29617 4.33406 2.96611 4.32511 2.64057 4.36541C2.46876 4.38779 2.28338 4.42361 2.12061 4.31616C2.12061 3.98931 2.11609 3.65798 2.11609 3.33114C2.30599 3.2192 2.52301 3.24607 2.72647 3.22816C3.54484 3.15204 4.37225 3.20129 5.19062 3.08488C5.21775 3.07593 5.24488 3.08488 5.272 3.10727Z" fill="#931B81"/>
<path d="M11.4707 22.4808C11.4617 22.6106 11.5069 22.6643 11.6471 22.6643C12.2665 22.6599 12.8859 22.633 13.5054 22.5748C13.5506 22.5703 13.5958 22.5703 13.641 22.5748C14.3011 22.5748 14.9567 22.5524 15.6123 22.4853C15.766 22.4718 15.9107 22.5166 16.0554 22.5345C15.7887 22.8121 15.5355 23.0986 15.2235 23.3359C14.8799 23.2419 14.5272 23.2912 14.179 23.3091C14.057 23.3136 13.9258 23.3359 13.7993 23.3359C13.329 23.3315 12.8588 23.3628 12.3886 23.421C12.1535 23.4479 11.9138 23.4345 11.6742 23.4255C11.5205 23.421 11.4617 23.4658 11.4662 23.627C11.4753 24.1105 11.4707 24.5941 11.4707 25.0776C11.4346 25.0642 11.4301 25.0373 11.4301 25.006C11.4346 24.1643 11.4346 23.327 11.4391 22.4853C11.4527 22.4808 11.4617 22.4808 11.4707 22.4808Z" fill="#D11D2B"/>
<path d="M5.27649 8.91441C5.11824 8.74427 4.91478 8.84277 4.73844 8.85172C4.62089 8.8562 4.50333 8.88306 4.38126 8.87859C3.68496 8.86515 2.99319 8.98604 2.2969 8.96813C2.20196 8.96813 2.16126 9.00395 2.16126 9.09798C2.16126 9.78749 2.16126 10.4815 2.16578 11.171C2.16578 11.1979 2.18839 11.2202 2.20196 11.2471C2.06631 11.2426 2.13866 11.1397 2.13866 11.0904C2.12961 10.2487 2.12961 9.40691 2.12509 8.56517C2.12509 8.43085 2.12961 8.29653 2.13413 8.16221C2.32403 8.03684 2.54106 8.09057 2.74904 8.06371C3.02484 8.02789 3.30517 8.03237 3.58097 8.06371C3.66688 8.09953 3.74374 8.104 3.82513 8.0458C3.8839 8.00102 3.95625 7.98759 4.03311 8.00102C4.70679 7.99207 5.38048 7.92043 6.05416 7.91148C6.13555 7.91148 6.22145 7.907 6.30284 7.92491C6.36614 7.94282 6.443 7.95177 6.41135 8.05028C6.03156 8.3413 5.65628 8.62785 5.27649 8.91441Z" fill="#B7213B"/>
<path d="M22.4532 8.47563C22.4034 8.48906 22.3537 8.52041 22.3039 8.51593C21.8835 8.48906 21.4675 8.56518 21.0515 8.56966C20.4547 8.57861 19.8624 8.62339 19.2656 8.65473C19.1887 8.6592 19.139 8.69055 19.1073 8.75771C18.7321 8.5025 18.3794 8.2249 18.0267 7.93835C18.081 7.85328 18.1714 7.83537 18.2618 7.83089C18.922 7.81298 19.5776 7.75926 20.2377 7.73687C20.4005 7.72344 20.4954 7.83985 20.6084 7.92044C20.6853 7.97417 20.7531 8.05028 20.8481 8.08163C20.9068 7.9473 20.7983 7.77269 20.9656 7.67419C21.4087 7.57121 21.8654 7.62493 22.313 7.57568C22.3672 7.57121 22.417 7.58912 22.4577 7.62941C22.4577 7.90701 22.4532 8.18908 22.4532 8.47563Z" fill="#AC2340"/>
<path d="M17.0953 21.5047C16.9732 21.4286 16.8511 21.4868 16.7291 21.4913C16.4126 21.4913 16.1051 21.5405 15.7931 21.5405C15.3817 21.545 14.9748 21.5629 14.5679 21.6301C14.4503 21.648 14.3508 21.5853 14.2378 21.5898C14.6221 21.1824 15.0336 20.8018 15.445 20.4212C15.5264 20.3988 15.6078 20.3943 15.6892 20.3943C16.3719 20.4078 17.0501 20.3585 17.7283 20.3182C17.8775 20.3093 18.0674 20.26 18.1307 20.4794C17.7961 20.8376 17.4525 21.1779 17.0953 21.5047Z" fill="#9E2349"/>
<path d="M2.11148 2.43119C2.06627 1.62079 2.09339 0.814866 2.08435 0.00894165C2.86655 0.761137 3.64422 1.51333 4.41738 2.26553C4.38573 2.38642 4.28174 2.39985 4.18679 2.40433C3.60353 2.42224 3.02027 2.49387 2.4325 2.50283C2.32398 2.49835 2.20643 2.51178 2.11148 2.43119Z" fill="#E41180"/>
<path d="M0.61499 14.6991C0.913401 14.6096 1.22538 14.623 1.52831 14.6185C2.10704 14.6051 2.68126 14.5335 3.25999 14.5648C3.33233 14.5693 3.41824 14.5783 3.4318 14.4708C3.79351 14.7842 4.14166 15.1155 4.47624 15.4558C4.25017 15.5454 4.01054 15.5454 3.77091 15.5498C3.12887 15.5677 2.48684 15.608 1.8448 15.6349C1.76794 15.6394 1.71368 15.6573 1.70464 15.7424C1.33841 15.3931 0.9767 15.0439 0.61499 14.6991Z" fill="#5D2884"/>
<path d="M18.1262 20.4839C17.9906 20.3227 17.8143 20.3854 17.647 20.3944C16.9552 20.4391 16.2634 20.4884 15.5717 20.466C15.531 20.466 15.4858 20.4391 15.4451 20.4212C15.7977 20.0541 16.1685 19.6959 16.5483 19.3556C16.7246 19.4675 16.91 19.3959 17.0908 19.3869C17.8097 19.3422 18.5332 19.2884 19.2566 19.3198C19.2701 19.3198 19.2837 19.3332 19.2973 19.3422C18.8994 19.7138 18.5422 20.1257 18.1262 20.4839Z" fill="#82295A"/>
<path d="M4.59827 18.5004C5.23126 18.5318 5.85521 18.4556 6.4882 18.4467C6.76852 18.4422 7.05337 18.4154 7.33822 18.4109C7.40604 18.4109 7.47838 18.4198 7.49194 18.3258C7.86269 18.5989 8.17467 18.9347 8.49569 19.2571C8.4143 19.4228 8.25605 19.4093 8.10685 19.4183C7.37439 19.4675 6.6374 19.4631 5.90494 19.5123C5.82808 19.5168 5.75574 19.5257 5.6834 19.5392C5.30812 19.2078 4.94641 18.8631 4.59827 18.5004Z" fill="#82295B"/>
<path d="M5.68787 19.5392C5.69691 19.4317 5.77829 19.4407 5.85516 19.4407C6.63283 19.4093 7.41051 19.378 8.18366 19.3556C8.30122 19.3511 8.40069 19.3063 8.50016 19.2571C8.86639 19.566 9.21001 19.8973 9.54459 20.2421C9.49034 20.3093 9.41347 20.3137 9.34113 20.3137C8.6358 20.3451 7.93047 20.4033 7.22513 20.4033C7.02167 20.4033 6.82273 20.4839 6.61927 20.4301C6.29373 20.1481 5.98176 19.8481 5.68787 19.5392Z" fill="#A12348"/>
<path d="M9.98317 15.3215C9.82945 15.2409 9.65764 15.2678 9.49939 15.2812C8.91161 15.3304 8.32835 15.3663 7.74057 15.3618C7.59589 15.3618 7.44669 15.4289 7.302 15.3573C8.18367 14.6544 9.06534 13.9514 9.98769 13.2171C9.98317 13.9559 9.98317 14.6365 9.98317 15.3215Z" fill="#5C2884"/>
<path d="M18.6506 3.76992C18.8767 3.51471 19.1209 3.27741 19.3786 3.04458C19.7448 3.06697 20.111 3.03115 20.4773 3.01772C21.047 2.99533 21.6121 2.93713 22.1818 2.94608C22.2903 2.94608 22.4124 2.9237 22.4757 3.05354C22.4802 3.68932 22.4802 4.32958 22.4848 4.96537C22.4848 5.04596 22.5028 5.12655 22.4667 5.20715C22.3898 5.14894 22.3943 5.06387 22.3943 4.9788C22.3853 4.75046 22.3853 4.51763 22.3898 4.28481C22.3943 4.11915 22.322 4.06542 22.1592 4.06094C21.9015 4.05647 21.6483 4.08333 21.3951 4.10572C21.2685 4.11467 21.1374 4.11915 21.0153 4.08333C20.952 4.06094 20.9158 4.01169 20.9204 3.95349C20.9249 3.81917 20.8435 3.78335 20.7305 3.77887C20.2467 3.74305 19.7629 3.80573 19.2791 3.81917C19.0711 3.82812 18.8541 3.89976 18.6506 3.76992Z" fill="#991880"/>
<path d="M13.6727 14.735C13.6681 14.7305 13.6636 14.7215 13.6591 14.7171C13.5461 14.5827 13.8083 14.2738 13.4918 14.2783C13.3109 14.2828 13.1346 14.229 12.9402 14.2693C12.6011 14.341 12.2439 14.3051 11.8912 14.332C11.4753 14.3678 11.4753 14.341 11.4707 14.7663C11.4707 14.8738 11.5024 14.9902 11.4436 15.0932C11.4255 14.1843 11.4255 13.2754 11.4436 12.3665C11.4527 12.3665 11.4617 12.3665 11.4662 12.3665C11.6109 12.6351 11.525 12.9127 11.5205 13.1545C11.5386 13.1321 11.5928 13.1142 11.6516 13.1097C12.2484 13.0604 12.8452 13.047 13.4421 13.0157C13.5234 13.0112 13.6094 13.0157 13.6727 13.0828C13.6772 13.6335 13.6727 14.1843 13.6727 14.735Z" fill="#911980"/>
<path d="M16.0825 6.46082C15.9514 6.42053 16.0102 6.3668 16.0689 6.30859C16.4804 5.91011 16.8873 5.51163 17.2942 5.11314C17.561 5.05046 17.8323 5.0818 18.099 5.06837C18.5286 5.05046 18.9626 4.95196 19.3967 5.0415C19.5097 5.18478 19.3786 5.26089 19.3017 5.33701C18.9897 5.65938 18.6687 5.96832 18.3522 6.28621C18.3025 6.34889 18.2347 6.38471 18.1578 6.38471C17.5022 6.41157 16.8466 6.46978 16.1865 6.48321C16.1548 6.48321 16.1187 6.48321 16.0825 6.46082Z" fill="#403082"/>
<path d="M20.2377 2.20282C20.9747 1.46853 21.7071 0.738723 22.4441 0.00443703C22.4531 -0.00451768 22.4712 -4.03293e-05 22.4893 -4.03293e-05C22.4893 0.837225 22.4893 1.67449 22.4893 2.51176C22.4667 2.50728 22.4441 2.5028 22.4351 2.48041C22.2994 2.22073 22.3039 2.23864 21.9965 2.25207C21.5037 2.27893 21.0063 2.31027 20.509 2.31475C20.405 2.31923 20.2919 2.31923 20.2377 2.20282Z" fill="#E30D80"/>
<path d="M10.2635 23.9136C9.54007 23.242 8.82117 22.5659 8.12036 21.8674C8.1294 21.7376 8.24244 21.751 8.32382 21.742C8.93873 21.6794 9.55363 21.6659 10.1685 21.6435C10.2635 21.6391 10.3223 21.6704 10.3223 21.7823C10.3177 22.4674 10.3223 23.1524 10.3223 23.8374C10.3177 23.8733 10.3177 23.9091 10.2635 23.9136Z" fill="#E32024"/>
<path d="M11.4707 22.4808H11.4572H11.4436C11.4436 22.0331 11.4436 21.5809 11.4436 21.1331C11.5069 20.9898 11.4572 20.8376 11.4753 20.6899C11.534 20.6272 11.6109 20.5958 11.6923 20.5914C12.3162 20.5555 12.9447 20.5197 13.5732 20.5287C13.5958 20.5287 13.6139 20.5421 13.6319 20.5555C13.6365 20.569 13.641 20.5824 13.65 20.5914C13.6817 20.9675 13.6636 21.3436 13.641 21.7197C13.5686 21.6749 13.4827 21.657 13.4014 21.6794C13.216 21.7376 13.0306 21.7286 12.8452 21.7152C12.47 21.6928 12.0992 21.7734 11.7239 21.7644C11.5521 21.7599 11.4391 21.8271 11.4662 22.0331C11.4888 22.1853 11.4707 22.333 11.4707 22.4808Z" fill="#A22247"/>
<path d="M2.11154 2.4312C2.8214 2.45806 3.52673 2.33717 4.23206 2.34165C4.29989 2.34165 4.36318 2.31031 4.41744 2.26553C4.72037 2.52522 5.0007 2.81177 5.27198 3.1028C4.97357 3.25503 4.63899 3.19682 4.32701 3.21921C3.8161 3.25503 3.29614 3.25055 2.78523 3.27742C2.56368 3.29085 2.34213 3.34458 2.11606 3.32219C2.09346 3.02668 2.08894 2.7267 2.11154 2.4312Z" fill="#B91480"/>
<path d="M7.03076 4.85345C7.42864 5.21164 7.80844 5.58774 8.17015 5.98175C8.10685 6.11607 7.98025 6.0713 7.87626 6.08025C7.33369 6.12502 6.78661 6.10264 6.24856 6.18323C6.14005 6.19666 6.06771 6.13398 5.99537 6.06234C5.72409 5.79818 5.4528 5.53401 5.19056 5.26089C5.12726 5.19373 5.03684 5.13105 5.10466 5.01464C5.16796 4.95643 5.24934 4.92957 5.33073 4.92509C5.8959 4.92061 6.46107 4.85345 7.03076 4.85345Z" fill="#403083"/>
<path d="M13.6772 13.0828C12.999 13.1142 12.3162 13.1366 11.638 13.1769C11.4888 13.1858 11.4662 13.141 11.4707 13.0112C11.4798 12.7963 11.4707 12.5814 11.4707 12.3665C11.4707 12.2769 11.4753 12.1874 11.4798 12.0978C11.7149 11.9725 11.9816 12.0127 12.2303 11.9948C12.687 11.968 13.1436 11.959 13.6003 11.8919C13.6319 11.8874 13.6591 11.8963 13.6862 11.9142C13.6772 12.3083 13.6772 12.6933 13.6772 13.0828Z" fill="#AF127F"/>
<path d="M4.15063 13.4276C4.12803 13.3335 4.05116 13.3515 3.98786 13.3515C3.13785 13.3694 2.28783 13.4365 1.43781 13.45C1.22079 13.4544 1.00828 13.5037 0.795776 13.4365C1.08062 13.1813 1.38355 12.944 1.69553 12.7201C2.06628 12.6709 2.44155 12.6933 2.81683 12.6575C3.40913 12.5993 4.00143 12.6351 4.59373 12.5813C4.75197 12.5679 4.92831 12.5276 5.05491 12.6799C4.7565 12.9306 4.45356 13.1768 4.15063 13.4276Z" fill="#9A1780"/>
<path d="M13.6817 11.9187C13.4194 12.062 13.121 12.0262 12.8452 12.0396C12.3885 12.0575 11.9319 12.1157 11.4752 12.0978C11.4752 11.7933 11.4752 11.4889 11.4707 11.1844C11.4707 11.0994 11.4797 11.077 11.5883 11.0546C11.8821 10.9964 12.176 10.9829 12.4699 10.9829C12.8723 10.9829 13.2747 10.9023 13.6817 10.9337C13.6771 11.265 13.6817 11.5919 13.6817 11.9187Z" fill="#C40F7F"/>
<path d="M20.2377 2.20284C20.4593 2.29686 20.7034 2.27448 20.925 2.23866C21.35 2.1715 21.775 2.25209 22.1955 2.16254C22.3808 2.12225 22.5029 2.18493 22.4622 2.40432C22.4577 2.43566 22.4803 2.47148 22.4894 2.5073C22.4758 2.68639 22.5255 2.86997 22.4803 3.04906C22.1503 2.96847 21.8157 3.00876 21.4811 3.02667C21.4133 3.03115 21.35 3.05354 21.2822 3.05354C20.7215 3.05354 20.1654 3.08488 19.6092 3.14308C19.5188 3.15204 19.4284 3.15204 19.3832 3.04458C19.6499 2.74908 19.9348 2.47148 20.2377 2.20284Z" fill="#B61580"/>
<path d="M10.2636 23.9135C10.3133 23.8553 10.2952 23.7882 10.2952 23.721C10.2952 23.1166 10.2907 22.5121 10.2997 21.9122C10.2997 21.7644 10.2952 21.7107 10.1008 21.7152C9.63508 21.7241 9.1739 21.7913 8.7082 21.7778C8.51378 21.7734 8.31032 21.7823 8.12495 21.8719C7.85819 21.6391 7.60047 21.4018 7.36536 21.1421C7.38796 20.9988 7.50552 21.0033 7.60499 20.9943C8.27867 20.9406 8.95236 20.9227 9.62604 20.9048C9.82046 20.9003 10.0058 20.8286 10.2003 20.8779C10.3223 20.9495 10.3404 21.057 10.3404 21.1913C10.3359 22.051 10.3404 22.9151 10.3314 23.7747C10.3314 23.8106 10.4263 23.9404 10.2636 23.9135Z" fill="#C91F30"/>
<path d="M10.2003 20.8734C10.0104 20.9674 9.81147 20.9585 9.608 20.963C8.92528 20.9854 8.24255 21.0212 7.56435 21.048C7.48748 21.0525 7.41514 21.0749 7.36541 21.1331C7.10317 20.9137 6.85449 20.6764 6.6239 20.4257C6.75502 20.363 6.89971 20.3317 7.03535 20.3361C7.50105 20.354 7.96223 20.2824 8.42793 20.2824C8.8032 20.2824 9.17395 20.2511 9.54923 20.2332C9.7753 20.4391 10.0104 20.6361 10.2003 20.8734Z" fill="#B6223C"/>
<path d="M5.05946 12.6799C4.86956 12.6261 4.67966 12.6127 4.48072 12.662C4.40386 12.6844 4.31795 12.6754 4.23657 12.6754C3.61714 12.6754 3.00223 12.7023 2.3828 12.7515C2.16126 12.7694 1.92163 12.8052 1.69556 12.7157C1.93971 12.4873 2.20195 12.2859 2.47775 12.0978C2.49132 12.1963 2.56366 12.1918 2.63148 12.1784C3.13787 12.0978 3.64879 12.1247 4.15518 12.0799C4.58019 12.0396 5.00972 12.0978 5.43021 12.0083C5.56133 11.9769 5.69697 12.0083 5.82809 12.053C5.57489 12.2635 5.31717 12.4739 5.05946 12.6799Z" fill="#9F1680"/>
<path d="M16.0825 6.46081C16.3357 6.37126 16.607 6.39365 16.8602 6.3847C17.2716 6.36679 17.6831 6.3041 18.0945 6.33097C18.2211 6.33992 18.2889 6.29067 18.3432 6.19217C18.6326 6.41604 18.9219 6.6399 19.2113 6.85929C19.2882 6.9175 19.4057 6.97123 19.3289 7.10555C19.2746 7.15928 19.2023 7.18614 19.1254 7.19062C18.4698 7.22644 17.8187 7.26226 17.1631 7.28017C16.8059 7.00705 16.4442 6.73393 16.0825 6.46081Z" fill="#6A2C69"/>
<path d="M7.03075 4.85344C6.9358 4.91612 6.83181 4.94746 6.71425 4.93851C6.26664 4.91164 5.82354 5.01014 5.37141 4.98328C5.27646 4.9788 5.18151 5.00567 5.10013 5.06835C5.02778 5.09521 4.98709 5.05044 4.94188 5.01014C4.70677 4.7818 4.47166 4.55345 4.24107 4.31615C4.20489 4.27586 4.14612 4.23108 4.19133 4.16392C4.20489 4.10124 4.25011 4.07885 4.30436 4.08781C4.62538 4.11915 4.94188 4.03856 5.26289 4.03856C5.56583 4.03856 5.86876 4.01169 6.17169 3.99826C6.4701 4.27138 6.76399 4.54898 7.03075 4.85344Z" fill="#6D2484"/>
<path d="M20.9657 4.04304C21.3907 4.0296 21.8157 4.01617 22.2407 3.99379C22.4035 3.98483 22.4713 4.0296 22.4623 4.20422C22.4487 4.46391 22.4532 4.72359 22.4532 4.98328C22.3899 5.04596 22.304 5.05044 22.2226 5.05044C21.9152 5.04149 21.6077 5.10865 21.3003 5.09969C21.0787 5.09521 21.0471 5.13999 21.038 5.36833C21.0335 5.534 21.0426 5.69518 21.0335 5.86084C21.029 5.99516 21.0697 6.04889 21.2144 6.03994C21.4766 6.02203 21.7388 6.03994 22.0011 6.00412C22.1548 5.98173 22.3176 5.95487 22.4577 6.05785C22.4577 6.11605 22.4577 6.17873 22.4577 6.23694C22.3899 6.29515 22.3085 6.30858 22.2272 6.3041C21.9061 6.28619 21.5851 6.36678 21.2641 6.34887C21.0832 6.33992 21.029 6.42947 21.0335 6.59065C21.038 6.70706 21.0516 6.82795 20.9883 6.93988C20.9657 6.96227 20.9431 6.96675 20.916 6.95779C20.8662 6.90407 20.8572 6.83691 20.8572 6.76975C20.8617 5.94143 20.83 5.11312 20.8753 4.28034C20.8798 4.19527 20.8707 4.09676 20.9657 4.04304Z" fill="#602884"/>
<path d="M6.41131 8.05475C6.37062 7.94281 6.27567 7.97863 6.20333 7.98311C5.53417 8.00997 4.86501 8.04131 4.19584 8.06818C4.11898 8.07266 4.02855 8.09952 3.96525 8.01893C3.95169 7.94729 4.00595 7.91147 4.05116 7.87565C4.27723 7.67865 4.53043 7.51299 4.76554 7.32942C4.82884 7.28016 4.90118 7.26226 4.97804 7.27569C5.36236 7.32942 5.74215 7.26226 6.11743 7.23091C6.47009 7.20405 6.81824 7.21748 7.1709 7.18166C7.26585 7.17271 7.36984 7.17271 7.40149 7.29807C7.07143 7.54881 6.74137 7.80401 6.41131 8.05475Z" fill="#95254E"/>
<path d="M17.1677 7.28017C17.3576 7.17719 17.5746 7.18167 17.7691 7.18615C18.2212 7.19062 18.6688 7.12346 19.1164 7.13242C19.2023 7.13242 19.2792 7.11003 19.338 7.04735C19.4058 7.01153 19.4555 7.0563 19.5008 7.09212C19.7494 7.26226 19.98 7.45031 20.2106 7.64284C20.2513 7.67866 20.2875 7.71447 20.2829 7.77268C20.0614 7.79954 19.8444 7.84879 19.6228 7.84432C19.1662 7.83089 18.7186 7.91596 18.2619 7.89805C18.1805 7.89357 18.1036 7.92491 18.0223 7.93834C17.7329 7.72343 17.4345 7.52643 17.1677 7.28017Z" fill="#902752"/>
<path d="M19.4284 5.10866C19.2792 5.03255 19.1164 5.05941 18.9672 5.07732C18.506 5.13105 18.0449 5.1221 17.5837 5.16239C17.4842 5.17135 17.3938 5.13105 17.2988 5.11314C17.552 4.82659 17.8278 4.56243 18.1127 4.30722C18.4879 4.28483 18.8632 4.25797 19.2385 4.24453C19.4646 4.23558 19.6906 4.24901 19.9167 4.21319C20.0162 4.19528 20.1111 4.20424 20.2015 4.25349C20.2784 4.29826 20.2739 4.36542 20.2242 4.42363C20.0026 4.66541 19.7765 4.90718 19.5188 5.11314C19.4872 5.13105 19.4555 5.12657 19.4284 5.10866Z" fill="#682584"/>
<path d="M2.11609 4.3117C2.57727 4.3117 3.03393 4.27588 3.49511 4.2311C3.57649 4.22215 3.5991 4.26692 3.63527 4.3117C3.71213 4.38781 3.71665 4.48631 3.71665 4.58034C3.7257 5.22508 3.72117 5.86981 3.71665 6.51903C3.71665 6.58619 3.70761 6.65335 3.67144 6.71156C3.58553 6.76529 3.56745 6.68917 3.55388 6.6444C3.51771 6.5056 3.41824 6.49217 3.29617 6.48321C3.09723 6.46978 2.89376 6.53246 2.70387 6.42501C2.70839 6.28621 2.82142 6.31755 2.89829 6.30859C3.03845 6.29069 3.18313 6.3086 3.32782 6.29516C3.44989 6.28173 3.52676 6.228 3.53128 6.09816C3.5358 5.86534 3.5358 5.63699 3.53128 5.40417C3.53128 5.3191 3.49963 5.25642 3.40016 5.26537C3.07914 5.28776 2.7536 5.24746 2.42806 5.30119C2.28338 5.32358 2.21556 5.38178 2.22008 5.53401C2.2246 5.72654 2.2246 5.92354 2.22008 6.11607C2.21556 6.27278 2.26982 6.35785 2.44163 6.34889C2.52301 6.34441 2.60892 6.34441 2.68126 6.39814C2.731 6.48769 2.64961 6.48321 2.6044 6.51008L2.12513 6.76976C2.12513 5.95041 2.12061 5.13105 2.11609 4.3117Z" fill="#632784"/>
<path d="M22.4622 6.05338C22.0101 6.04442 21.567 6.12054 21.1149 6.1071C20.9883 6.10263 20.9656 6.08024 20.9656 5.96831C20.9702 5.73101 20.9747 5.49371 20.9656 5.25193C20.9566 5.08179 21.038 5.01911 21.1917 5.02806C21.6122 5.05045 22.0282 4.94747 22.4487 4.98329C22.4532 5.0594 22.4577 5.13104 22.4622 5.20716C22.4667 5.48923 22.4622 5.7713 22.4622 6.05338Z" fill="#403082"/>
<path d="M7.40155 7.29809C7.35633 7.2757 7.3066 7.22645 7.2659 7.23093C6.71882 7.29361 6.16721 7.26675 5.62013 7.33839C5.38502 7.36973 5.14538 7.39659 4.91027 7.30704C4.90575 7.26675 4.91479 7.23093 4.94644 7.20407C5.16799 7.02497 5.38049 6.8414 5.62465 6.68917C5.67438 6.65783 5.73768 6.64887 5.80098 6.66231C6.50179 6.65335 7.19808 6.58619 7.8989 6.57724C8.01193 6.57724 8.14757 6.55037 8.21991 6.68469C7.95315 6.89961 7.68187 7.10556 7.40155 7.29809Z" fill="#7B295E"/>
<path d="M8.21086 6.68021C7.94863 6.59514 7.67734 6.63544 7.41058 6.65335C7.28398 6.6623 7.15739 6.68916 7.03531 6.68021C6.6736 6.65334 6.32093 6.74289 5.96374 6.72498C5.88688 6.72051 5.79645 6.75632 5.73315 6.67573C5.78289 6.47425 5.97731 6.41605 6.11295 6.30411C6.17173 6.25486 6.24407 6.23247 6.19886 6.13845C6.36162 6.08472 6.52891 6.05338 6.70073 6.0489C7.16191 6.03547 7.62761 6.02204 8.08879 6.00413C8.11592 6.00413 8.14304 5.98622 8.17017 5.97726C8.21086 6.00861 8.25156 6.03995 8.28773 6.07129C8.63135 6.41157 8.63135 6.41157 8.21086 6.68021Z" fill="#5F2E70"/>
<path d="M3.65334 8.11295C3.14694 8.08609 2.64507 8.15325 2.13868 8.1622C2.13868 7.88013 2.13416 7.59358 2.13416 7.3115C2.17485 7.26225 2.23815 7.24434 2.29692 7.24882C2.65863 7.26225 3.01582 7.18166 3.37753 7.19957C3.49057 7.20405 3.60812 7.20405 3.68499 7.30703C3.73472 7.57567 3.77993 7.84879 3.65334 8.11295Z" fill="#95254E"/>
<path d="M3.64878 7.30704C3.43175 7.21749 3.19664 7.24436 2.98414 7.2757C2.69929 7.316 2.41444 7.29361 2.13412 7.31152C2.13412 7.13243 2.1296 6.95333 2.1296 6.76976C2.12508 6.4653 2.31045 6.42053 2.56365 6.45634C2.61338 6.4653 2.67216 6.46082 2.70833 6.41157C2.92536 6.41157 3.14238 6.425 3.35941 6.40709C3.54479 6.39366 3.64878 6.43843 3.61713 6.64439C3.61261 6.66678 3.63973 6.69812 3.64878 6.72051C3.76181 6.92199 3.76181 7.11452 3.64878 7.30704Z" fill="#6A2C69"/>
<path d="M20.2468 4.31167C20.093 4.2669 19.9438 4.2848 19.7856 4.29824C19.2792 4.33853 18.7683 4.34301 18.2574 4.35644C18.2076 4.35644 18.1579 4.3251 18.1082 4.31167C18.2709 4.11914 18.4563 3.94005 18.6507 3.77439C19.2114 3.77439 19.7675 3.73409 20.3236 3.69827C20.4774 3.68932 20.6537 3.61768 20.7848 3.77439C20.6627 4.00273 20.5226 4.21764 20.2468 4.31167Z" fill="#822083"/>
<path d="M20.943 6.95333H20.9611C21.4087 6.89512 21.8609 6.89065 22.3085 6.87274C22.3627 6.86826 22.4125 6.87274 22.4577 6.91303C22.4577 7.15033 22.4577 7.39211 22.4577 7.62941C21.9513 7.66075 21.4449 7.68761 20.9385 7.71896C20.8074 7.51748 20.8119 7.1369 20.943 6.95333Z" fill="#8C2955"/>
<path d="M22.4576 6.90407C21.9784 6.98466 21.4901 6.92645 21.0153 7.00705C20.9791 7.01152 20.9701 6.9757 20.9611 6.94884C20.9611 6.7787 20.9701 6.60856 20.9656 6.43842C20.9611 6.32649 20.9972 6.27276 21.1193 6.27724C21.5669 6.29515 22.0145 6.20112 22.4622 6.23246C22.4802 6.46081 22.4757 6.68468 22.4576 6.90407Z" fill="#6C2C67"/>
<path d="M11.4752 18.0527C11.4752 17.3229 11.4752 16.5931 11.4707 15.8677C11.4707 15.7021 11.534 15.6394 11.6832 15.7021C11.8234 15.7558 11.95 15.6931 12.0811 15.6842C12.4428 15.6663 12.8045 15.6439 13.1662 15.6394C13.641 15.6304 13.641 15.6349 13.641 16.114C13.641 16.7453 13.6364 17.3766 13.6364 18.0079C13.442 18.0885 13.2386 18.0437 13.0396 18.0616C12.6191 18.093 12.1986 18.1064 11.7782 18.1199C11.6742 18.1199 11.5657 18.1288 11.4752 18.0527Z" fill="#4D2B84"/>
<path d="M13.6364 20.5555C13.5324 20.5958 13.4194 20.6092 13.3064 20.6048C12.696 20.5913 12.0856 20.6272 11.4752 20.6898C11.4752 20.1839 11.4752 19.678 11.4752 19.172C11.6787 19.0556 11.9183 19.0511 12.1263 19.069C12.5468 19.1093 12.9582 18.9929 13.3787 19.0198C13.4691 19.0243 13.5596 19.0064 13.6319 19.078C13.6364 19.5705 13.6364 20.063 13.6364 20.5555Z" fill="#7E295D"/>
<path d="M13.6364 19.078C13.2883 19.0914 12.9356 19.1407 12.592 19.1407C12.2212 19.1452 11.8505 19.181 11.4797 19.172C11.4797 18.8004 11.4797 18.4243 11.4797 18.0527C12.0766 18.0482 12.6734 18.0303 13.2657 17.9632C13.3968 17.9497 13.5189 17.999 13.641 18.0079C13.6364 18.3661 13.6364 18.7243 13.6364 19.078Z" fill="#552E75"/>
<path d="M2.70382 6.41605C2.16125 6.41157 2.16125 6.41157 2.16125 5.87876C2.16125 5.8116 2.16125 5.74444 2.16125 5.67728C2.16125 5.22507 2.16125 5.22955 2.62696 5.20268C2.92084 5.18925 3.21473 5.2385 3.5041 5.17134C3.60809 5.14895 3.60809 5.22507 3.60809 5.29671C3.60809 5.58773 3.60357 5.87876 3.60809 6.16979C3.61261 6.36232 3.46341 6.34888 3.34585 6.36679C3.13335 6.39366 2.9118 6.32202 2.70382 6.41605Z" fill="#403082"/>
</g>
<defs>
<clipPath id="clip0_124_11464">
<rect width="24.5556" height="26" fill="white"/>
</clipPath>
</defs>
</svg>
