<svg width="231" height="40" viewBox="0 0 231 40" fill="none" xmlns="http://www.w3.org/2000/svg">
<path d="M46.4343 31.5275L50.2991 8.24783H66.6677L65.8038 13.3403H55.7553L55.1188 17.3415H64.1669L63.303 22.4339H54.2549L52.7544 31.5275H46.4343ZM89.5438 20.2969C89.1194 22.8279 88.2783 24.9498 87.0203 26.6624C85.7624 28.3751 84.2354 29.6671 82.4394 30.5386C80.6434 31.4101 78.7224 31.8458 76.6763 31.8458C74.4939 31.8458 72.5994 31.3722 70.9928 30.4249C69.3863 29.4777 68.2155 28.0909 67.4804 26.2646C66.7453 24.4383 66.5976 22.2065 67.0371 19.5694C67.4463 17.0383 68.2799 14.9089 69.5378 13.1811C70.7958 11.4533 72.3303 10.1461 74.1415 9.25949C75.9526 8.37286 77.8888 7.92955 79.95 7.92955C82.1173 7.92955 84.0005 8.40696 85.5995 9.36179C87.206 10.3166 88.373 11.7148 89.1005 13.5562C89.8356 15.3977 89.9833 17.6446 89.5438 20.2969ZM83.1783 19.5694C83.3905 18.2357 83.4056 17.1141 83.2237 16.2047C83.0419 15.2878 82.6592 14.5982 82.0757 14.1359C81.4922 13.6661 80.7078 13.4312 79.7227 13.4312C78.6011 13.4312 77.6084 13.704 76.7445 14.2496C75.8806 14.7952 75.1645 15.5796 74.5962 16.6026C74.0278 17.6256 73.63 18.8571 73.4026 20.2969C73.1601 21.6458 73.1374 22.7673 73.3344 23.6615C73.539 24.5557 73.9407 25.2264 74.5393 25.6735C75.1456 26.1206 75.9337 26.3441 76.9037 26.3441C78.0101 26.3441 78.9876 26.0789 79.8364 25.5485C80.6927 25.018 81.4012 24.2488 81.962 23.2409C82.5304 22.2331 82.9358 21.0092 83.1783 19.5694ZM99.4076 8.24783L102.09 15.0226H102.272L107.274 8.24783H114.594L105.728 19.8877L111.002 31.5275H103.954L101.135 24.6164H100.953L95.861 31.5275H88.4952L97.5888 19.8877L92.5873 8.24783H99.4076ZM113.454 31.5275L117.319 8.24783H127.413C129.186 8.24783 130.638 8.48653 131.767 8.96395C132.903 9.44136 133.707 10.1158 134.176 10.9873C134.654 11.8588 134.794 12.8856 134.597 14.0677C134.445 14.9165 134.12 15.6932 133.619 16.398C133.127 17.0952 132.502 17.6863 131.744 18.1712C130.994 18.6487 130.156 18.9783 129.232 19.1602L129.186 19.3875C130.187 19.4178 131.058 19.6679 131.801 20.1377C132.543 20.6 133.089 21.2441 133.438 22.0701C133.786 22.8886 133.87 23.8434 133.688 24.9346C133.476 26.2077 132.956 27.3407 132.13 28.3334C131.304 29.3261 130.232 30.1066 128.914 30.675C127.595 31.2433 126.095 31.5275 124.412 31.5275H113.454ZM120.638 26.4805H123.594C124.64 26.4805 125.462 26.2797 126.06 25.8781C126.667 25.4765 127.027 24.8892 127.14 24.1162C127.231 23.5706 127.186 23.1083 127.004 22.7294C126.822 22.3505 126.515 22.0626 126.083 21.8655C125.651 21.6685 125.109 21.57 124.458 21.57H121.411L120.638 26.4805ZM122.093 17.6597H124.685C125.231 17.6597 125.731 17.5726 126.185 17.3983C126.64 17.224 127.015 16.9701 127.311 16.6367C127.606 16.3033 127.792 15.9016 127.868 15.4318C127.981 14.7043 127.807 14.1511 127.345 13.7722C126.89 13.3933 126.276 13.2039 125.503 13.2039H122.821L122.093 17.6597ZM159.252 20.2969C158.828 22.8279 157.987 24.9498 156.729 26.6624C155.471 28.3751 153.944 29.6671 152.148 30.5386C150.352 31.4101 148.431 31.8458 146.385 31.8458C144.202 31.8458 142.308 31.3722 140.701 30.4249C139.095 29.4777 137.924 28.0909 137.189 26.2646C136.454 24.4383 136.306 22.2065 136.745 19.5694C137.155 17.0383 137.988 14.9089 139.246 13.1811C140.504 11.4533 142.039 10.1461 143.85 9.25949C145.661 8.37286 147.597 7.92955 149.658 7.92955C151.826 7.92955 153.709 8.40696 155.308 9.36179C156.914 10.3166 158.081 11.7148 158.809 13.5562C159.544 15.3977 159.692 17.6446 159.252 20.2969ZM152.887 19.5694C153.099 18.2357 153.114 17.1141 152.932 16.2047C152.75 15.2878 152.368 14.5982 151.784 14.1359C151.2 13.6661 150.416 13.4312 149.431 13.4312C148.309 13.4312 147.317 13.704 146.453 14.2496C145.589 14.7952 144.873 15.5796 144.304 16.6026C143.736 17.6256 143.338 18.8571 143.111 20.2969C142.868 21.6458 142.846 22.7673 143.043 23.6615C143.247 24.5557 143.649 25.2264 144.248 25.6735C144.854 26.1206 145.642 26.3441 146.612 26.3441C147.718 26.3441 148.696 26.0789 149.545 25.5485C150.401 25.018 151.11 24.2488 151.67 23.2409C152.239 22.2331 152.644 21.0092 152.887 19.5694ZM184.729 20.2969C184.304 22.8279 183.463 24.9498 182.205 26.6624C180.947 28.3751 179.42 29.6671 177.624 30.5386C175.828 31.4101 173.907 31.8458 171.861 31.8458C169.679 31.8458 167.784 31.3722 166.178 30.4249C164.571 29.4777 163.4 28.0909 162.665 26.2646C161.93 24.4383 161.782 22.2065 162.222 19.5694C162.631 17.0383 163.465 14.9089 164.723 13.1811C165.98 11.4533 167.515 10.1461 169.326 9.25949C171.137 8.37286 173.074 7.92955 175.135 7.92955C177.302 7.92955 179.185 8.40696 180.784 9.36179C182.391 10.3166 183.558 11.7148 184.285 13.5562C185.02 15.3977 185.168 17.6446 184.729 20.2969ZM178.363 19.5694C178.575 18.2357 178.59 17.1141 178.408 16.2047C178.227 15.2878 177.844 14.5982 177.26 14.1359C176.677 13.6661 175.893 13.4312 174.907 13.4312C173.786 13.4312 172.793 13.704 171.929 14.2496C171.065 14.7952 170.349 15.5796 169.781 16.6026C169.213 17.6256 168.815 18.8571 168.587 20.2969C168.345 21.6458 168.322 22.7673 168.519 23.6615C168.724 24.5557 169.125 25.2264 169.724 25.6735C170.33 26.1206 171.118 26.3441 172.088 26.3441C173.195 26.3441 174.172 26.0789 175.021 25.5485C175.877 25.018 176.586 24.2488 177.147 23.2409C177.715 22.2331 178.12 21.0092 178.363 19.5694ZM200.975 15.5227C201.043 14.7725 200.861 14.1852 200.429 13.7608C199.997 13.3289 199.27 13.1129 198.247 13.1129C197.595 13.1129 197.049 13.1887 196.61 13.3403C196.178 13.4918 195.841 13.7002 195.598 13.9654C195.363 14.2307 195.216 14.5376 195.155 14.8862C195.087 15.159 195.091 15.4091 195.166 15.6364C195.25 15.8562 195.405 16.057 195.632 16.2389C195.867 16.4207 196.174 16.5837 196.553 16.7276C196.94 16.8716 197.398 17.0004 197.928 17.1141L199.747 17.5233C200.99 17.7961 202.032 18.1561 202.873 18.6032C203.722 19.0427 204.389 19.5656 204.874 20.1718C205.359 20.7781 205.677 21.4563 205.829 22.2065C205.988 22.9568 205.992 23.7752 205.84 24.6618C205.582 26.1926 204.987 27.4884 204.055 28.5493C203.123 29.6103 201.907 30.4173 200.407 30.9705C198.906 31.5237 197.171 31.8003 195.2 31.8003C193.185 31.8003 191.472 31.501 190.062 30.9023C188.661 30.2961 187.645 29.3716 187.016 28.1288C186.395 26.8784 186.243 25.2832 186.561 23.3432H192.563C192.472 24.0556 192.548 24.6542 192.791 25.1392C193.033 25.6242 193.423 25.9918 193.961 26.2418C194.499 26.4919 195.17 26.617 195.973 26.617C196.655 26.617 197.239 26.5336 197.724 26.3669C198.209 26.2002 198.592 25.969 198.872 25.6735C199.152 25.3779 199.323 25.0407 199.383 24.6618C199.444 24.3132 199.383 24.0025 199.202 23.7297C199.02 23.4569 198.69 23.2106 198.213 22.9909C197.735 22.7711 197.08 22.5703 196.246 22.3884L194.018 21.8883C192.04 21.4336 190.547 20.6834 189.54 19.6376C188.532 18.5918 188.176 17.1596 188.471 15.3409C188.714 13.8556 189.324 12.5597 190.301 11.4533C191.286 10.3394 192.537 9.47546 194.052 8.86165C195.576 8.24025 197.262 7.92955 199.111 7.92955C200.99 7.92955 202.562 8.24404 203.828 8.87301C205.101 9.50199 206.014 10.3848 206.567 11.5215C207.128 12.6582 207.28 13.992 207.022 15.5227H200.975ZM209.472 13.3403L210.336 8.24783H230.569L229.705 13.3403H222.703L219.702 31.5275H213.473L216.474 13.3403H209.472Z" fill="url(#paint0_linear_5_164)"/>
<g clip-path="url(#clip0_5_164)">
<path d="M17.1412 19.051C17.1344 18.045 17.1276 17.0391 17.1276 16.0398C17.1276 14.4101 17.1344 12.7804 17.1208 11.1507C17.1208 10.8891 17.1886 10.8154 17.4595 10.8154C19.3219 10.8288 21.1843 10.8221 23.04 10.8154C23.2229 10.8154 23.3583 10.8623 23.5005 10.9763C25.5052 12.5926 27.5098 14.1955 29.5077 15.8118C29.5822 15.8721 29.7244 15.9124 29.6906 16.0264C29.6567 16.1404 29.5145 16.1001 29.4197 16.1001C27.9975 16.1001 26.5752 16.1001 25.1598 16.1068C24.9905 16.1068 24.8618 16.0465 24.7331 15.9459C23.4396 14.9801 22.1393 14.0144 20.8389 13.0487C20.7509 12.9816 20.6629 12.9212 20.4935 12.8072C20.4935 14.2223 20.4935 15.5703 20.4935 16.9116C20.4055 16.9988 20.2971 17.0055 20.182 17.0055C19.4235 17.0391 18.6582 17.0793 17.8997 17.1195C17.8116 17.1262 17.7236 17.1329 17.6288 17.1397C17.3579 17.1464 17.2698 17.2738 17.2834 17.542C17.3037 17.8975 17.2969 18.2529 17.2834 18.6084C17.2766 18.7425 17.2902 18.8767 17.236 19.0041C17.2157 19.0376 17.1886 19.0577 17.1412 19.051Z" fill="#E41180"/>
<path d="M14.9537 23.4773C14.9604 23.7255 14.9672 23.9669 14.974 24.2151C14.9807 24.3224 14.9401 24.4028 14.8521 24.4766C13.9513 25.1674 13.0574 25.8649 12.1634 26.5624C11.4116 26.6026 10.6599 26.6495 9.90815 26.6831C8.58074 26.7434 7.25334 26.777 5.92593 26.8642C5.72276 26.8776 5.51958 26.8977 5.33672 26.7703C4.3818 25.9051 3.46075 25.0198 2.54646 24.1145C2.47874 23.8797 2.66159 23.873 2.79704 23.8663C3.06794 23.8462 3.33884 23.7925 3.60297 23.7993C4.36149 23.8127 5.11323 23.6785 5.86498 23.7255C6.14942 23.7456 6.41355 23.5846 6.69799 23.6852C7.23979 24.1882 7.78836 24.6845 8.31662 25.2009C8.48593 25.3619 8.58752 25.3887 8.78392 25.2277C9.48826 24.6577 10.2129 24.1078 10.9308 23.5511C11.0459 23.5109 11.1678 23.4773 11.2897 23.4706C12.3598 23.4438 13.4366 23.3902 14.5067 23.3231C14.676 23.303 14.8521 23.303 14.9537 23.4773Z" fill="#45307F"/>
<path d="M6.33905 16.5629C7.2127 15.8587 8.07958 15.1545 8.95323 14.457C10.4093 13.2968 11.8654 12.1433 13.3215 10.9763C13.4569 10.8623 13.5992 10.8087 13.7752 10.8087C14.2629 10.8154 14.7437 10.802 15.2313 10.7885C15.421 10.7818 15.4887 10.8355 15.4887 11.03C15.4751 11.6671 15.4819 12.3042 15.4887 12.9346C15.4887 13.0554 15.4616 13.1492 15.3668 13.2297C13.9852 14.3363 12.6104 15.4496 11.2288 16.5629C10.2603 16.6031 9.29863 16.6367 8.33016 16.7037C7.78836 16.744 7.24656 16.697 6.71154 16.7775C6.54222 16.8043 6.39323 16.744 6.33905 16.5629Z" fill="#E41180"/>
<path d="M35.4675 20.6002C35.8739 20.9154 36.2734 21.2374 36.6798 21.5526C36.7881 21.6398 36.8356 21.7001 36.7069 21.8074C36.375 22.1025 36.0974 22.458 35.7316 22.7262C35.2305 22.8335 34.7225 22.8067 34.2214 22.8268C33.4358 22.8603 32.6502 22.8872 31.8578 22.9207C30.6252 22.9744 29.3858 23.028 28.1532 23.0884C27.3608 23.1219 26.5617 23.2493 25.7625 23.1487C25.1124 22.5451 24.4825 21.9281 23.8798 21.2843C23.8866 21.063 24.0762 21.0496 24.2184 21.0429C24.6112 21.0362 25.004 20.9691 25.3968 20.9624C27.2254 20.9423 29.0404 20.7813 30.869 20.7478C31.8849 20.7277 32.894 20.6539 33.9098 20.6271C34.4313 20.6002 34.946 20.4929 35.4675 20.6002Z" fill="#822083"/>
<path d="M22.803 35.4754C21.5298 36.7496 20.2498 38.0172 18.9901 39.3048C18.7666 39.5328 18.6447 39.5127 18.4347 39.2981C18.0284 38.8756 17.6017 38.4866 17.1818 38.0775C17.1073 37.2996 17.1683 36.5216 17.148 35.7369C17.1412 35.5022 17.3308 35.5156 17.4866 35.5022C17.9268 35.4687 18.367 35.4754 18.8004 35.4486C19.9789 35.3681 21.164 35.3077 22.3424 35.301C22.5118 35.3077 22.7217 35.2474 22.803 35.4754Z" fill="#E32024"/>
<path d="M33.5712 24.8656C32.745 25.6905 31.9255 26.5154 31.0993 27.3336C31.018 27.4141 30.9367 27.4812 30.8487 27.5549C30.5913 27.6622 30.3137 27.6287 30.0495 27.6421C29.0404 27.6823 28.0246 27.7494 27.0155 27.7494C26.9071 27.7494 26.7378 27.7762 26.8055 27.5683C27.7062 26.6495 28.6408 25.7576 29.589 24.8857C29.9886 24.765 30.4085 24.8254 30.8216 24.7851C31.6411 24.7046 32.4605 24.6979 33.28 24.6912C33.4019 24.6979 33.5848 24.6242 33.5712 24.8656Z" fill="#3F3183"/>
<path d="M33.6322 13.223C33.6322 14.6113 33.6322 16.0062 33.6322 17.475C33.3884 17.2939 33.1919 17.1464 33.0023 17.0055C31.5936 15.9325 30.1782 14.8594 28.7695 13.7864C28.7153 13.7461 28.6747 13.6992 28.6205 13.6522C28.607 13.4242 28.7898 13.4175 28.9388 13.4041C29.7854 13.3571 30.6387 13.2901 31.4853 13.27C32.0813 13.2498 32.6705 13.1627 33.2664 13.1895C33.3951 13.1828 33.517 13.156 33.6322 13.223Z" fill="#DE2027"/>
<path d="M33.5712 24.8656C33.5577 24.7851 33.5103 24.7382 33.429 24.765C33.1446 24.8656 32.8466 24.812 32.5621 24.812C31.8104 24.8187 31.0654 24.8522 30.3204 24.9461C30.0698 24.9796 29.8328 24.879 29.589 24.8857C30.0834 24.3962 30.571 23.9133 31.0722 23.417C30.9774 23.303 30.8555 23.3566 30.7539 23.3566C29.2436 23.3499 27.7333 23.3499 26.2231 23.3566C26.0267 23.3566 25.8641 23.3298 25.7693 23.142C26.1892 22.9945 26.6362 23.0817 27.0696 23.0146C27.5302 22.9408 28.011 22.9945 28.4851 22.9475C29.1894 22.8738 29.9005 22.8939 30.6049 22.8671C31.8239 22.8134 33.043 22.753 34.2688 22.7195C34.7564 22.7061 35.244 22.6189 35.7384 22.7128C35.0408 23.4639 34.3297 24.1882 33.5712 24.8656Z" fill="#542B84"/>
<path d="M20.4394 33.0677C20.4529 33.2421 20.4665 33.4098 20.48 33.6311C20.778 33.3561 21.0489 33.1147 21.3198 32.8665C21.4959 32.7458 21.6923 32.8263 21.8751 32.8062C22.8233 32.6921 23.7714 32.6921 24.7264 32.6318C24.8957 32.6184 25.0582 32.605 25.2275 32.5916C25.3765 32.5781 25.5255 32.5781 25.6 32.7458C25.0988 33.2823 24.5841 33.792 24.0423 34.2883C23.6224 34.3688 23.1958 34.3487 22.7759 34.3822C22.4102 34.409 22.0377 34.4224 21.6652 34.4291C20.3039 34.456 18.9494 34.5767 17.5949 34.5834C17.2021 34.5834 17.1683 34.5499 17.1479 34.2212C17.1479 33.9865 17.1479 33.7518 17.1479 33.5171C17.1479 33.1549 17.2089 33.061 17.5543 33.0476C18.0081 33.0275 18.4483 32.9537 18.902 32.9604C19.2881 32.9671 19.6673 32.9805 20.0533 32.9202C20.2091 32.8933 20.3581 32.9068 20.4394 33.0677Z" fill="#B8213A"/>
<path d="M35.4675 20.6002C35.4201 20.6204 35.3659 20.6539 35.3185 20.6606C34.6548 20.6874 33.9911 20.7008 33.3342 20.7344C32.1016 20.788 30.8622 20.8417 29.6296 20.8819C28.7086 20.9087 27.7875 20.9624 26.8732 21.016C25.986 21.0697 25.0988 21.0764 24.2184 21.1368C24.0897 21.1435 23.9746 21.1703 23.8933 21.2843C23.5141 20.8819 23.1348 20.4728 22.7488 20.0637C22.8368 20.0637 22.952 20.0637 23.0739 20.0637C26.7581 20.0637 30.4423 20.0771 34.1198 20.0503C34.6819 20.0369 35.1018 20.2046 35.4675 20.6002Z" fill="#991C82"/>
<path d="M6.33905 16.5629C6.50159 16.6836 6.66413 16.7507 6.86731 16.6635C6.92826 16.6367 7.00276 16.6434 7.06371 16.6434C7.829 16.6232 8.59429 16.6434 9.35281 16.5562C9.90138 16.4958 10.4567 16.583 10.9918 16.4489C11.0866 16.422 11.2017 16.422 11.222 16.5696C10.4093 17.2604 9.58307 17.9444 8.72974 18.595C8.41143 18.6754 8.07958 18.662 7.76128 18.6822C7.2127 18.7157 6.65736 18.7358 6.10879 18.7559C5.42477 18.776 4.73398 18.8163 4.04995 18.8632C3.9145 18.8699 3.68424 18.9705 3.71133 18.6687C4.56466 17.931 5.44509 17.2402 6.33905 16.5629Z" fill="#BB107F"/>
<path d="M6.21715 20.6405C5.85821 20.9423 5.49249 21.2441 5.13355 21.5459C4.73398 21.8745 4.73398 21.9013 5.14033 22.1964C5.18096 22.4714 4.95747 22.4244 4.81525 22.4378C4.32085 22.4714 3.82646 22.4714 3.33884 22.4848C2.53292 22.4982 1.73377 22.6457 0.92784 22.5451C0.650168 22.2903 0.379269 22.0287 0.0948246 21.7739C-0.00676263 21.68 -0.0338526 21.6129 0.0948246 21.519C0.467311 21.2374 0.833025 20.949 1.19874 20.6606C1.56445 20.5935 1.93694 20.5935 2.29588 20.5801C3.37271 20.5466 4.44953 20.5063 5.52636 20.4393C5.69567 20.4259 5.86498 20.4192 6.02752 20.446C6.12911 20.4661 6.2781 20.4594 6.21715 20.6405Z" fill="#7C2283"/>
<path d="M7.9035 13.8803C6.38646 15.0673 4.85588 16.241 3.29821 17.3811C3.16953 17.3811 3.2034 17.2805 3.2034 17.2067C3.2034 16.1873 3.21017 15.1746 3.19662 14.1552C3.19662 13.9205 3.31853 13.8601 3.50816 13.8601C4.37504 13.8467 5.24191 13.7327 6.10879 13.726C6.59641 13.7193 7.07726 13.6455 7.5581 13.659C7.70033 13.659 7.92382 13.5986 7.9035 13.8803Z" fill="#E32024"/>
<path d="M5.34351 26.7569C6.5761 26.7099 7.81546 26.6898 9.04805 26.616C9.96911 26.5557 10.8834 26.5288 11.8045 26.4953C11.9264 26.4886 12.055 26.4886 12.1634 26.5557C11.7841 26.8642 11.4117 27.1794 11.0256 27.4745C10.8834 27.5818 10.924 27.6689 11.0121 27.7695C11.0798 27.8433 11.1543 27.9104 11.2288 27.9774C11.2627 28.2323 11.0527 28.1988 10.924 28.2055C10.5312 28.2256 10.1384 28.2591 9.74562 28.2658C8.96678 28.2792 8.19472 28.3731 7.41589 28.353C7.23303 28.3463 7.05694 28.3463 6.8944 28.2457C6.35261 27.7628 5.83112 27.28 5.34351 26.7569Z" fill="#6A2C69"/>
<path d="M26.8055 27.575C26.8123 27.6488 26.8461 27.6958 26.9342 27.6891C27.9297 27.622 28.9253 27.5683 29.9208 27.5616C30.2324 27.5616 30.5371 27.4342 30.8487 27.5616C30.2188 28.2256 29.5754 28.8761 28.8914 29.4931C28.756 29.5132 28.6273 29.5468 28.4918 29.5535C27.4082 29.5602 26.3314 29.5937 25.2478 29.701C25.065 29.7211 24.8821 29.7211 24.7805 29.52C25.4442 28.8493 26.1079 28.1988 26.8055 27.575Z" fill="#6A2C69"/>
<path d="M17.1412 32.1825C17.1344 31.2637 17.1276 30.3516 17.1208 29.4328C17.1208 27.4543 17.1208 25.4759 17.1208 23.4975C17.1208 23.3767 17.1344 23.256 17.1344 23.1286C17.1615 22.8268 17.1547 22.525 17.1412 22.2232C17.1344 22.0153 17.2021 21.908 17.4188 21.9013C18.3534 21.8678 19.2813 21.7672 20.2159 21.794C20.4055 21.8007 20.4732 21.8745 20.4665 22.0623C20.4597 22.2366 20.4529 22.4177 20.4732 22.5988C20.4732 24.4364 20.48 26.2673 20.4732 28.1049C20.4732 29.1913 20.4529 30.2845 20.4394 31.371C20.3987 31.3441 20.3716 31.3106 20.3581 31.2704C20.2768 30.5528 20.331 29.8285 20.3242 29.1041C20.3107 28.5743 20.3107 28.0445 20.3242 27.5147C20.3107 26.5087 20.3242 25.5094 20.3175 24.5034C20.3175 24.0474 20.2904 24.0407 19.8434 24.0407C19.0646 24.0407 18.2925 24.1346 17.5204 24.148C17.3037 24.1547 17.2834 24.2754 17.2834 24.4297C17.2766 24.8321 17.2834 25.2345 17.2766 25.6369C17.2766 26.2807 17.2834 26.9312 17.2698 27.5751C17.2834 28.1317 17.2834 28.6816 17.2698 29.2383C17.2834 29.9894 17.2834 30.7338 17.2698 31.485C17.2428 31.7197 17.3985 31.988 17.1412 32.1825Z" fill="#752382"/>
<path d="M7.89672 5.18186C8.35048 5.62449 8.79746 6.07383 9.25122 6.51647C8.87873 6.70425 8.47238 6.6506 8.07958 6.67072C7.49714 6.69754 6.92148 6.73778 6.34582 6.79814C6.1291 6.84509 6.03429 6.66401 5.89884 6.55671C5.79048 6.46952 5.71598 6.33539 5.58053 6.27503C5.49249 6.51647 5.68889 6.81155 5.42476 7.01275C4.93714 7.01946 4.44275 7.00604 3.95513 7.0664C3.69778 7.09994 3.42011 7.15359 3.1763 6.99263C3.1763 6.50305 3.16953 6.00677 3.16953 5.51719C3.45397 5.34953 3.77905 5.38976 4.08381 5.36294C5.30963 5.24893 6.54899 5.3227 7.77481 5.14833C7.81545 5.13492 7.85608 5.14833 7.89672 5.18186Z" fill="#931B81"/>
<path d="M17.1818 34.2011C17.1683 34.3956 17.236 34.4761 17.4459 34.4761C18.3738 34.4694 19.3016 34.4291 20.2294 34.342C20.2971 34.3353 20.3649 34.3353 20.4326 34.342C21.4214 34.342 22.4034 34.3084 23.3854 34.2078C23.6157 34.1877 23.8324 34.2548 24.0491 34.2816C23.6495 34.6974 23.2703 35.1266 22.803 35.4821C22.2883 35.3412 21.76 35.415 21.2385 35.4418C21.0557 35.4485 20.8593 35.4821 20.6696 35.4821C19.9653 35.4754 19.261 35.5223 18.5566 35.6095C18.2044 35.6497 17.8455 35.6296 17.4866 35.6162C17.2563 35.6095 17.1683 35.6766 17.175 35.918C17.1886 36.6423 17.1818 37.3666 17.1818 38.0909C17.1276 38.0708 17.1208 38.0306 17.1208 37.9836C17.1276 36.7228 17.1276 35.4687 17.1344 34.2078C17.1547 34.2011 17.1683 34.2011 17.1818 34.2011Z" fill="#D11D2B"/>
<path d="M7.9035 13.8803C7.66646 13.6254 7.3617 13.773 7.09757 13.7864C6.92149 13.7931 6.74541 13.8333 6.56255 13.8266C5.51959 13.8065 4.4834 13.9876 3.44043 13.9607C3.29821 13.9607 3.23726 14.0144 3.23726 14.1552C3.23726 15.188 3.23726 16.2276 3.24403 17.2604C3.24403 17.3006 3.27789 17.3341 3.29821 17.3744C3.09504 17.3677 3.2034 17.2134 3.2034 17.1397C3.18985 15.8788 3.18985 14.618 3.18308 13.3572C3.18308 13.156 3.18985 12.9548 3.19662 12.7536C3.48107 12.5658 3.80615 12.6463 4.11768 12.606C4.5308 12.5524 4.9507 12.5591 5.36382 12.606C5.4925 12.6597 5.60763 12.6664 5.72953 12.5792C5.81757 12.5121 5.92593 12.492 6.04107 12.5121C7.05017 12.4987 8.05927 12.3914 9.06837 12.378C9.19027 12.378 9.31895 12.3713 9.44085 12.3981C9.53567 12.4249 9.6508 12.4384 9.60339 12.5859C9.03451 13.0218 8.47239 13.451 7.9035 13.8803Z" fill="#B7213B"/>
<path d="M33.6322 13.223C33.5577 13.2431 33.4832 13.2901 33.4087 13.2834C32.7788 13.2431 32.1558 13.3571 31.5327 13.3639C30.6387 13.3773 29.7515 13.4443 28.8576 13.4913C28.7424 13.498 28.6679 13.5449 28.6205 13.6455C28.0584 13.2633 27.5301 12.8475 27.0019 12.4182C27.0832 12.2908 27.2186 12.264 27.3541 12.2573C28.3428 12.2304 29.3249 12.15 30.3136 12.1164C30.5574 12.0963 30.6997 12.2707 30.869 12.3914C30.9841 12.4719 31.0857 12.5859 31.2279 12.6328C31.316 12.4316 31.1534 12.1701 31.404 12.0225C32.0677 11.8683 32.7517 11.9488 33.4222 11.875C33.5035 11.8683 33.578 11.8951 33.6389 11.9555C33.6389 12.3713 33.6322 12.7938 33.6322 13.223Z" fill="#AC2340"/>
<path d="M25.6068 32.7391C25.4239 32.6251 25.2411 32.7123 25.0582 32.719C24.5841 32.719 24.1236 32.7928 23.6563 32.7928C23.04 32.7995 22.4305 32.8263 21.821 32.9269C21.6449 32.9537 21.4959 32.8598 21.3266 32.8665C21.9022 32.2562 22.5185 31.6862 23.1348 31.1161C23.2567 31.0826 23.3786 31.0759 23.5005 31.0759C24.5232 31.096 25.5391 31.0222 26.5549 30.9619C26.7784 30.9485 27.0629 30.8747 27.1577 31.2033C26.6565 31.7398 26.1418 32.2495 25.6068 32.7391Z" fill="#9E2349"/>
<path d="M3.16277 4.16917C3.09504 2.95528 3.13568 1.7481 3.12213 0.540924C4.29377 1.66763 5.45864 2.79433 6.61673 3.92103C6.56933 4.10211 6.41356 4.12223 6.27134 4.12893C5.39769 4.15576 4.52404 4.26306 3.64361 4.27648C3.48107 4.26977 3.30499 4.28989 3.16277 4.16917Z" fill="#E41180"/>
<path d="M0.921082 22.5451C1.36807 22.411 1.83537 22.4311 2.28912 22.4244C3.156 22.4043 4.01611 22.297 4.88299 22.3439C4.99134 22.3507 5.12002 22.3641 5.14034 22.2031C5.68214 22.6726 6.20362 23.1689 6.70478 23.6786C6.36616 23.8127 6.00722 23.8127 5.64828 23.8194C4.68658 23.8462 3.72489 23.9066 2.7632 23.9468C2.64807 23.9535 2.5668 23.9803 2.55325 24.1078C2.00468 23.5847 1.46288 23.0615 0.921082 22.5451Z" fill="#5D2884"/>
<path d="M27.1509 31.21C26.9477 30.9686 26.6836 31.0625 26.433 31.0759C25.3968 31.1429 24.3606 31.2167 23.3245 31.1832C23.2635 31.1832 23.1958 31.1429 23.1348 31.1161C23.6631 30.5662 24.2184 30.0296 24.7873 29.5199C25.0514 29.6876 25.3291 29.5803 25.6 29.5669C26.6768 29.4998 27.7604 29.4193 28.844 29.4663C28.8643 29.4663 28.8847 29.4864 28.905 29.4998C28.309 30.0565 27.774 30.6735 27.1509 31.21Z" fill="#82295A"/>
<path d="M6.88763 28.239C7.83578 28.286 8.77039 28.1719 9.71853 28.1585C10.1384 28.1518 10.5651 28.1116 10.9918 28.1049C11.0933 28.1049 11.2017 28.1183 11.222 27.9774C11.7774 28.3865 12.2447 28.8895 12.7255 29.3724C12.6036 29.6206 12.3666 29.6004 12.1431 29.6138C11.0459 29.6876 9.94203 29.6809 8.84488 29.7547C8.72975 29.7614 8.62139 29.7748 8.51303 29.7949C7.95091 29.2986 7.40912 28.7822 6.88763 28.239Z" fill="#82295B"/>
<path d="M8.51981 29.7949C8.53335 29.634 8.65526 29.6474 8.77039 29.6474C9.93526 29.6004 11.1001 29.5535 12.2582 29.5199C12.4343 29.5132 12.5833 29.4462 12.7323 29.3724C13.2809 29.8352 13.7956 30.3314 14.2967 30.8478C14.2155 30.9484 14.1003 30.9552 13.992 30.9552C12.9355 31.0021 11.879 31.0893 10.8225 31.0893C10.5177 31.0893 10.2197 31.21 9.91494 31.1295C9.42732 30.707 8.96002 30.2577 8.51981 29.7949Z" fill="#A12348"/>
<path d="M14.9536 23.4773C14.7234 23.3566 14.466 23.3969 14.229 23.417C13.3486 23.4907 12.4749 23.5444 11.5945 23.5377C11.3778 23.5377 11.1543 23.6383 10.9376 23.531C12.2582 22.4781 13.5788 21.4251 14.9604 20.3253C14.9536 21.4318 14.9536 22.4512 14.9536 23.4773Z" fill="#5C2884"/>
<path d="M27.9365 6.17443C28.2751 5.79215 28.6409 5.43671 29.0269 5.08797C29.5755 5.1215 30.124 5.06785 30.6726 5.04773C31.5259 5.01419 32.3725 4.92701 33.2258 4.94042C33.3884 4.94042 33.5712 4.90689 33.666 5.10138C33.6728 6.05371 33.6728 7.01275 33.6796 7.96508C33.6796 8.0858 33.7067 8.20651 33.6525 8.32723C33.5374 8.24005 33.5441 8.11262 33.5441 7.9852C33.5306 7.64316 33.5306 7.29442 33.5374 6.94568C33.5441 6.69754 33.4358 6.61706 33.192 6.61035C32.8059 6.60365 32.4267 6.64389 32.0474 6.67742C31.8578 6.69083 31.6614 6.69754 31.4785 6.64389C31.3837 6.61035 31.3295 6.53658 31.3363 6.4494C31.3431 6.2482 31.2212 6.19455 31.0519 6.18784C30.3272 6.13419 29.6026 6.22808 28.8779 6.2482C28.5664 6.26161 28.2413 6.36892 27.9365 6.17443Z" fill="#991880"/>
<path d="M20.48 22.5988C20.4732 22.5921 20.4665 22.5787 20.4597 22.572C20.2904 22.3708 20.6832 21.908 20.2091 21.9147C19.9382 21.9214 19.6741 21.841 19.3829 21.9013C18.8749 22.0086 18.3399 21.955 17.8116 21.9952C17.1886 22.0489 17.1886 22.0086 17.1818 22.6457C17.1818 22.8067 17.2292 22.9811 17.1412 23.1353C17.1141 21.7739 17.1141 20.4125 17.1412 19.051C17.1547 19.051 17.1683 19.051 17.175 19.051C17.3917 19.4534 17.2631 19.8692 17.2563 20.2314C17.2834 20.1978 17.3647 20.171 17.4527 20.1643C18.3467 20.0905 19.2406 20.0704 20.1346 20.0235C20.2565 20.0168 20.3852 20.0235 20.48 20.1241C20.4868 20.949 20.48 21.7739 20.48 22.5988Z" fill="#911980"/>
<path d="M24.0897 10.2051C23.8933 10.1447 23.9814 10.0642 24.0694 9.97705C24.6857 9.38016 25.2952 8.78328 25.9048 8.1864C26.3043 8.0925 26.7107 8.13945 27.1103 8.11933C27.7537 8.0925 28.4038 7.94496 29.054 8.07909C29.2233 8.2937 29.0269 8.40771 28.9118 8.52172C28.4445 9.0046 27.9636 9.46735 27.4895 9.94351C27.415 10.0374 27.3135 10.0911 27.1983 10.0911C26.2163 10.1313 25.2343 10.2185 24.2455 10.2386C24.1981 10.2386 24.1439 10.2386 24.0897 10.2051Z" fill="#403082"/>
<path d="M30.3137 3.82709C31.4176 2.72721 32.5147 1.63405 33.6186 0.534171C33.6322 0.520757 33.6593 0.527464 33.6864 0.527464C33.6864 1.78159 33.6864 3.03572 33.6864 4.28984C33.6525 4.28313 33.6186 4.27643 33.6051 4.2429C33.4019 3.85392 33.4087 3.88074 32.9482 3.90086C32.21 3.9411 31.465 3.98805 30.72 3.99475C30.5642 4.00146 30.3949 4.00146 30.3137 3.82709Z" fill="#E30D80"/>
<path d="M15.3735 36.3472C14.29 35.3412 13.2131 34.3285 12.1634 33.2823C12.1769 33.0878 12.3462 33.108 12.4682 33.0945C13.3892 33.0006 14.3103 32.9805 15.2313 32.947C15.3735 32.9403 15.4616 32.9872 15.4616 33.1549C15.4548 34.181 15.4616 35.2071 15.4616 36.2332C15.4548 36.2869 15.4548 36.3405 15.3735 36.3472Z" fill="#E32024"/>
<path d="M17.1818 34.2011H17.1615H17.1412C17.1412 33.5305 17.1412 32.8531 17.1412 32.1824C17.236 31.9678 17.1615 31.7398 17.1886 31.5185C17.2766 31.4246 17.3918 31.3777 17.5137 31.371C18.4483 31.3173 19.3896 31.2637 20.331 31.2771C20.3649 31.2771 20.392 31.2972 20.4191 31.3173C20.4258 31.3374 20.4326 31.3575 20.4461 31.371C20.4936 31.9343 20.4665 32.4977 20.4326 33.061C20.3242 32.9939 20.1956 32.9671 20.0737 33.0006C19.796 33.0878 19.5183 33.0744 19.2406 33.0543C18.6785 33.0208 18.1232 33.1415 17.5611 33.1281C17.3037 33.1214 17.1344 33.222 17.175 33.5305C17.2089 33.7585 17.1818 33.9798 17.1818 34.2011Z" fill="#A22247"/>
<path d="M3.16277 4.16917C4.22605 4.20941 5.28255 4.02833 6.33906 4.03504C6.44065 4.03504 6.53546 3.98809 6.61673 3.92103C7.07049 4.31001 7.49038 4.73923 7.89673 5.17515C7.44975 5.40318 6.94858 5.31599 6.48128 5.34952C5.71599 5.40318 4.93716 5.39647 4.17187 5.43671C3.84001 5.45683 3.50816 5.53731 3.16954 5.50378C3.13568 5.06114 3.1289 4.6118 3.16277 4.16917Z" fill="#B91480"/>
<path d="M10.5312 7.79742C11.1272 8.33394 11.6961 8.89729 12.2379 9.48747C12.1431 9.68867 11.9534 9.6216 11.7977 9.63501C10.985 9.70208 10.1655 9.66855 9.35957 9.78926C9.19703 9.80938 9.08867 9.71549 8.98031 9.60819C8.57396 9.2125 8.16761 8.81681 7.77481 8.40771C7.67999 8.30711 7.54454 8.21322 7.64613 8.03885C7.74095 7.95167 7.86285 7.91143 7.98476 7.90472C8.83132 7.89801 9.67788 7.79742 10.5312 7.79742Z" fill="#403083"/>
<path d="M20.4868 20.1241C19.4709 20.171 18.4483 20.2045 17.4324 20.2649C17.2089 20.2783 17.175 20.2112 17.1818 20.0168C17.1954 19.6948 17.1818 19.3729 17.1818 19.051C17.1818 18.9169 17.1886 18.7828 17.1954 18.6486C17.5475 18.4608 17.9471 18.5212 18.3196 18.4944C19.0036 18.4541 19.6876 18.4407 20.3716 18.3401C20.4191 18.3334 20.4597 18.3468 20.5003 18.3737C20.4868 18.9638 20.4868 19.5406 20.4868 20.1241Z" fill="#AF127F"/>
<path d="M6.21714 20.6405C6.18328 20.4996 6.06814 20.5265 5.97333 20.5265C4.7001 20.5533 3.42688 20.6539 2.15365 20.674C1.82857 20.6807 1.51026 20.7545 1.19196 20.6539C1.61862 20.2716 2.07238 19.9162 2.53968 19.5808C3.09502 19.5071 3.65714 19.5406 4.21926 19.4869C5.10645 19.3998 5.99365 19.4534 6.88084 19.3729C7.11788 19.3528 7.38201 19.2925 7.57164 19.5205C7.12465 19.896 6.6709 20.2649 6.21714 20.6405Z" fill="#9A1780"/>
<path d="M20.4935 18.3804C20.1007 18.595 19.6538 18.5413 19.2406 18.5614C18.5566 18.5883 17.8726 18.6754 17.1886 18.6486C17.1886 18.1926 17.1886 17.7365 17.1818 17.2805C17.1818 17.1531 17.1953 17.1195 17.3579 17.086C17.7981 16.9988 18.2383 16.9787 18.6785 16.9787C19.2813 16.9787 19.884 16.858 20.4935 16.9049C20.4868 17.4012 20.4935 17.8908 20.4935 18.3804Z" fill="#C40F7F"/>
<path d="M30.3137 3.82714C30.6455 3.96798 31.0112 3.93444 31.3431 3.88079C31.9797 3.78019 32.6163 3.90091 33.2461 3.76678C33.5238 3.70642 33.7067 3.80031 33.6457 4.12893C33.6389 4.17588 33.6728 4.22953 33.6864 4.28318C33.666 4.55145 33.7405 4.82642 33.6728 5.09468C33.1784 4.97396 32.6773 5.03432 32.1761 5.06114C32.0745 5.06785 31.9797 5.10138 31.8781 5.10138C31.0383 5.10138 30.2053 5.14833 29.3723 5.23552C29.2368 5.24893 29.1014 5.24893 29.0337 5.08797C29.4332 4.64534 29.8599 4.22953 30.3137 3.82714Z" fill="#B61580"/>
<path d="M15.3735 36.3472C15.448 36.26 15.4209 36.1594 15.4209 36.0588C15.4209 35.1535 15.4142 34.2481 15.4277 33.3494C15.4277 33.1281 15.4209 33.0476 15.1297 33.0543C14.4322 33.0677 13.7414 33.1683 13.0438 33.1482C12.7526 33.1415 12.4478 33.1549 12.1702 33.289C11.7706 32.9403 11.3845 32.5849 11.0324 32.1959C11.0662 31.9813 11.2423 31.988 11.3913 31.9746C12.4004 31.8941 13.4095 31.8672 14.4186 31.8404C14.7098 31.8337 14.9875 31.7264 15.2787 31.8002C15.4616 31.9075 15.4887 32.0684 15.4887 32.2696C15.4819 33.5573 15.4887 34.8517 15.4751 36.1393C15.4751 36.193 15.6174 36.3875 15.3735 36.3472Z" fill="#C91F30"/>
<path d="M15.2787 31.7935C14.9943 31.9343 14.6963 31.9209 14.3915 31.9276C13.3689 31.9611 12.3462 32.0148 11.3304 32.055C11.2152 32.0617 11.1069 32.0953 11.0324 32.1825C10.6396 31.8538 10.2671 31.4984 9.92169 31.1228C10.1181 31.0289 10.3348 30.982 10.538 30.9887C11.2356 31.0155 11.9263 30.9082 12.6239 30.9082C13.186 30.9082 13.7414 30.8613 14.3035 30.8344C14.6421 31.1429 14.9943 31.438 15.2787 31.7935Z" fill="#B6223C"/>
<path d="M7.57843 19.5205C7.29399 19.44 7.00954 19.4199 6.71155 19.4937C6.59642 19.5272 6.46774 19.5138 6.34584 19.5138C5.41801 19.5138 4.49695 19.554 3.56912 19.6278C3.23727 19.6546 2.87833 19.7083 2.5397 19.5741C2.90542 19.2321 3.29822 18.9303 3.71134 18.6486C3.73166 18.7962 3.84002 18.7895 3.94161 18.7693C4.70013 18.6486 5.46542 18.6889 6.22393 18.6218C6.86055 18.5614 7.50393 18.6486 8.13377 18.5145C8.33018 18.4676 8.53335 18.5145 8.72975 18.5816C8.35049 18.8968 7.96446 19.212 7.57843 19.5205Z" fill="#9F1680"/>
<path d="M24.0898 10.2051C24.469 10.0709 24.8754 10.1045 25.2546 10.0911C25.8709 10.0642 26.4872 9.97034 27.1035 10.0106C27.2931 10.024 27.3947 9.95022 27.476 9.80267C27.9094 10.138 28.3429 10.4733 28.7763 10.8019C28.8914 10.8891 29.0675 10.9696 28.9524 11.1708C28.8711 11.2513 28.7628 11.2915 28.6476 11.2982C27.6656 11.3519 26.6904 11.4055 25.7084 11.4324C25.1733 11.0233 24.6316 10.6142 24.0898 10.2051Z" fill="#6A2C69"/>
<path d="M10.5312 7.79742C10.389 7.89131 10.2332 7.93825 10.0572 7.92484C9.38668 7.8846 8.72298 8.03215 8.04573 7.99191C7.90351 7.9852 7.76128 8.02544 7.63938 8.11933C7.53102 8.15957 7.47007 8.0925 7.40234 8.03215C7.05017 7.69011 6.698 7.34808 6.35261 6.99263C6.29843 6.93227 6.21039 6.8652 6.27811 6.76461C6.29843 6.67071 6.36615 6.63718 6.44742 6.6506C6.92827 6.69754 7.40234 6.57682 7.88319 6.57682C8.33695 6.57682 8.7907 6.53658 9.24446 6.51646C9.69144 6.92556 10.1317 7.34137 10.5312 7.79742Z" fill="#6D2484"/>
<path d="M31.404 6.58353C32.0406 6.56341 32.6772 6.54329 33.3139 6.50976C33.5577 6.49634 33.6592 6.56341 33.6457 6.82496C33.6254 7.21395 33.6322 7.60293 33.6322 7.99191C33.5373 8.0858 33.4087 8.0925 33.2868 8.0925C32.8262 8.07909 32.3657 8.17969 31.9052 8.16628C31.5733 8.15957 31.5259 8.22664 31.5124 8.56867C31.5056 8.81681 31.5191 9.05825 31.5056 9.30639C31.4988 9.50759 31.5598 9.58807 31.7765 9.57465C32.1693 9.54783 32.5621 9.57465 32.9549 9.521C33.1852 9.48747 33.429 9.44723 33.6389 9.60148C33.6389 9.68866 33.6389 9.78256 33.6389 9.86974C33.5373 9.95693 33.4154 9.97705 33.2935 9.97034C32.8127 9.94351 32.3318 10.0642 31.851 10.0374C31.5801 10.024 31.4988 10.1581 31.5056 10.3996C31.5124 10.5739 31.5327 10.755 31.4379 10.9227C31.404 10.9562 31.3701 10.9629 31.3295 10.9495C31.255 10.869 31.2415 10.7684 31.2415 10.6678C31.2482 9.42711 31.2008 8.1864 31.2686 6.93898C31.2753 6.81155 31.2618 6.66401 31.404 6.58353Z" fill="#602884"/>
<path d="M9.6034 12.5926C9.54245 12.4249 9.40022 12.4786 9.29186 12.4853C8.28954 12.5255 7.28721 12.5725 6.28488 12.6127C6.16975 12.6194 6.0343 12.6597 5.93948 12.5389C5.91917 12.4316 6.00044 12.378 6.06816 12.3243C6.40679 12.0293 6.78604 11.7811 7.13821 11.5061C7.23303 11.4324 7.34139 11.4055 7.45652 11.4257C8.03218 11.5061 8.60107 11.4055 9.16319 11.3586C9.69144 11.3184 10.2129 11.3385 10.7412 11.2848C10.8834 11.2714 11.0392 11.2714 11.0866 11.4592C10.5922 11.8348 10.0978 12.217 9.6034 12.5926Z" fill="#95254E"/>
<path d="M25.7151 11.4324C25.9996 11.2781 26.3247 11.2848 26.6159 11.2915C27.2931 11.2982 27.9636 11.1976 28.6341 11.2111C28.7628 11.2111 28.8779 11.1775 28.9659 11.0836C29.0675 11.03 29.142 11.097 29.2097 11.1507C29.5822 11.4055 29.9276 11.6872 30.273 11.9756C30.334 12.0293 30.3882 12.0829 30.3814 12.1701C30.0495 12.2103 29.7245 12.2841 29.3926 12.2774C28.7086 12.2573 28.0381 12.3847 27.3541 12.3579C27.2322 12.3512 27.1171 12.3981 26.9951 12.4182C26.5617 12.0963 26.1147 11.8012 25.7151 11.4324Z" fill="#902752"/>
<path d="M29.1014 8.17969C28.8779 8.06568 28.6341 8.10592 28.4106 8.13274C27.7198 8.21322 27.029 8.19981 26.3382 8.26017C26.1892 8.27358 26.0538 8.21322 25.9115 8.1864C26.2908 7.75718 26.7039 7.36149 27.1306 6.97922C27.6927 6.94568 28.2548 6.90544 28.8169 6.88532C29.1555 6.87191 29.4942 6.89203 29.8328 6.83838C29.9818 6.81155 30.124 6.82497 30.2595 6.89874C30.3746 6.9658 30.3678 7.0664 30.2933 7.15359C29.9615 7.51574 29.6229 7.87789 29.2368 8.1864C29.1894 8.21322 29.142 8.20652 29.1014 8.17969Z" fill="#682584"/>
<path d="M3.16953 6.98592C3.86032 6.98592 4.54434 6.93227 5.23513 6.86521C5.35704 6.85179 5.3909 6.91886 5.44508 6.98592C5.56021 7.09994 5.56698 7.24748 5.56698 7.38832C5.58053 8.35406 5.57376 9.31981 5.56698 10.2923C5.56698 10.3929 5.55344 10.4935 5.49926 10.5806C5.37058 10.6611 5.34349 10.5471 5.32318 10.48C5.269 10.2721 5.12 10.252 4.93714 10.2386C4.63915 10.2185 4.33439 10.3124 4.04995 10.1514C4.05672 9.94352 4.22603 9.99046 4.34116 9.97705C4.55111 9.95022 4.76783 9.97705 4.98455 9.95693C5.16741 9.93681 5.28254 9.85633 5.28931 9.66184C5.29609 9.3131 5.29609 8.97106 5.28931 8.62232C5.28931 8.4949 5.24191 8.40101 5.09291 8.41442C4.61206 8.44795 4.12445 8.38759 3.63683 8.46807C3.42011 8.50161 3.31852 8.58879 3.32529 8.81681C3.33206 9.1052 3.33206 9.40028 3.32529 9.68867C3.31852 9.9234 3.39979 10.0508 3.65714 10.0374C3.77905 10.0307 3.90773 10.0307 4.01609 10.1112C4.09058 10.2453 3.96868 10.2386 3.90095 10.2788L3.18307 10.6678C3.18307 9.44052 3.1763 8.21322 3.16953 6.98592Z" fill="#632784"/>
<path d="M33.6457 9.59477C32.9685 9.58136 32.3048 9.69537 31.6275 9.67525C31.4379 9.66855 31.404 9.63501 31.404 9.46735C31.4108 9.1119 31.4176 8.75645 31.404 8.3943C31.3905 8.13945 31.5124 8.04556 31.7427 8.05897C32.3725 8.09251 32.9956 7.93825 33.6254 7.99191C33.6322 8.10592 33.639 8.21322 33.6457 8.32723C33.6525 8.74975 33.6457 9.17226 33.6457 9.59477Z" fill="#403082"/>
<path d="M11.0866 11.4592C11.0189 11.4257 10.9444 11.3519 10.8834 11.3586C10.0639 11.4525 9.23769 11.4123 8.41822 11.5196C8.06605 11.5665 7.70711 11.6067 7.35494 11.4726C7.34816 11.4123 7.36171 11.3586 7.40912 11.3184C7.74097 11.0501 8.05928 10.7751 8.42499 10.5471C8.49949 10.5002 8.5943 10.4867 8.68912 10.5069C9.73885 10.4935 10.7818 10.3929 11.8315 10.3794C12.0009 10.3794 12.204 10.3392 12.3124 10.5404C11.9128 10.8623 11.5065 11.1708 11.0866 11.4592Z" fill="#7B295E"/>
<path d="M12.2988 10.5337C11.906 10.4063 11.4997 10.4666 11.1001 10.4934C10.9105 10.5069 10.7209 10.5471 10.538 10.5337C9.9962 10.4934 9.46795 10.6276 8.93292 10.6008C8.81779 10.594 8.68234 10.6477 8.58752 10.527C8.66202 10.2252 8.95324 10.138 9.15641 9.97034C9.24445 9.89657 9.35282 9.86303 9.28509 9.7222C9.5289 9.64172 9.77948 9.59477 10.0368 9.58806C10.7276 9.56794 11.4252 9.54782 12.116 9.521C12.1566 9.521 12.1973 9.49417 12.2379 9.48076C12.2988 9.5277 12.3598 9.57465 12.414 9.6216C12.9287 10.1313 12.9287 10.1313 12.2988 10.5337Z" fill="#5F2E70"/>
<path d="M5.47218 12.6798C4.71366 12.6395 3.96192 12.7401 3.2034 12.7536C3.2034 12.331 3.19662 11.9018 3.19662 11.4793C3.25758 11.4055 3.35239 11.3787 3.44043 11.3854C3.98223 11.4055 4.51726 11.2848 5.05906 11.3116C5.22837 11.3184 5.40445 11.3184 5.51959 11.4726C5.59408 11.875 5.66181 12.2841 5.47218 12.6798Z" fill="#95254E"/>
<path d="M5.4654 11.4726C5.14032 11.3385 4.78816 11.3787 4.46985 11.4257C4.04318 11.486 3.61652 11.4525 3.19662 11.4793C3.19662 11.2111 3.18985 10.9428 3.18985 10.6678C3.18308 10.2118 3.46075 10.1447 3.84001 10.1984C3.91451 10.2118 4.00255 10.2051 4.05673 10.1313C4.38181 10.1313 4.70689 10.1514 5.03197 10.1246C5.30964 10.1045 5.4654 10.1715 5.418 10.48C5.41122 10.5136 5.45186 10.5605 5.4654 10.594C5.63472 10.8958 5.63472 11.1842 5.4654 11.4726Z" fill="#6A2C69"/>
<path d="M30.3272 6.98592C30.0969 6.91886 29.8734 6.94568 29.6364 6.9658C28.8779 7.02616 28.1126 7.03287 27.3473 7.05299C27.2728 7.05299 27.1983 7.00604 27.1238 6.98592C27.3676 6.69754 27.6453 6.42928 27.9365 6.18114C28.7763 6.18114 29.6093 6.12078 30.4423 6.06712C30.6726 6.05371 30.9367 5.94641 31.1331 6.18114C30.9503 6.52317 30.7403 6.84508 30.3272 6.98592Z" fill="#822083"/>
<path d="M31.3702 10.9428H31.3972C32.0677 10.8556 32.745 10.8489 33.4154 10.8221C33.4967 10.8154 33.5712 10.8221 33.6389 10.8824C33.6389 11.2379 33.6389 11.6 33.6389 11.9555C32.8804 12.0024 32.1219 12.0427 31.3634 12.0896C31.167 11.7878 31.1738 11.2178 31.3702 10.9428Z" fill="#8C2955"/>
<path d="M33.6389 10.869C32.9211 10.9897 32.1896 10.9026 31.4785 11.0233C31.4243 11.03 31.4108 10.9763 31.3972 10.9361C31.3972 10.6812 31.4108 10.4264 31.404 10.1715C31.3972 10.0039 31.4514 9.9234 31.6343 9.9301C32.3048 9.95693 32.9752 9.81609 33.6457 9.86304C33.6728 10.2051 33.666 10.5404 33.6389 10.869Z" fill="#6C2C67"/>
<path d="M17.1886 27.5683C17.1886 26.4752 17.1886 25.382 17.1818 24.2955C17.1818 24.0474 17.2766 23.9535 17.5001 24.0474C17.71 24.1279 17.8997 24.034 18.0961 24.0206C18.6379 23.9937 19.1797 23.9602 19.7215 23.9535C20.4326 23.9401 20.4326 23.9468 20.4326 24.6644C20.4326 25.61 20.4258 26.5557 20.4258 27.5013C20.1346 27.622 19.8298 27.5549 19.5318 27.5818C18.902 27.6287 18.2722 27.6488 17.6423 27.6689C17.4866 27.6689 17.324 27.6824 17.1886 27.5683Z" fill="#4D2B84"/>
<path d="M20.4258 31.3173C20.27 31.3777 20.1007 31.3978 19.9314 31.3911C19.0171 31.371 18.1029 31.4246 17.1886 31.5185C17.1886 30.7607 17.1886 30.0028 17.1886 29.245C17.4933 29.0706 17.8523 29.0639 18.1638 29.0907C18.7936 29.1511 19.4099 28.9767 20.0398 29.017C20.1752 29.0237 20.3107 28.9968 20.419 29.1041C20.4258 29.8419 20.4258 30.5796 20.4258 31.3173Z" fill="#7E295D"/>
<path d="M20.4258 29.1041C19.9043 29.1243 19.3761 29.198 18.8614 29.198C18.306 29.2047 17.7507 29.2584 17.1953 29.245C17.1953 28.6883 17.1953 28.125 17.1953 27.5683C18.0893 27.5616 18.9833 27.5348 19.8705 27.4342C20.0669 27.4141 20.2497 27.4879 20.4326 27.5013C20.4258 28.0378 20.4258 28.5743 20.4258 29.1041Z" fill="#552E75"/>
<path d="M4.04997 10.138C3.23727 10.1313 3.23727 10.1313 3.23727 9.33322C3.23727 9.23262 3.23727 9.13202 3.23727 9.03142C3.23727 8.35406 3.23727 8.36077 3.93484 8.32053C4.37505 8.30041 4.81526 8.37418 5.2487 8.27358C5.40447 8.24005 5.40447 8.35406 5.40447 8.46137C5.40447 8.89729 5.3977 9.33322 5.40447 9.76914C5.41124 10.0575 5.18775 10.0374 5.01166 10.0642C4.69336 10.1045 4.36151 9.99717 4.04997 10.138Z" fill="#403082"/>
</g>
<defs>
<linearGradient id="paint0_linear_5_164" x1="40.012" y1="20.0275" x2="230.012" y2="20.0275" gradientUnits="userSpaceOnUse">
<stop stop-color="#3D3182"/>
<stop offset="1" stop-color="#E31D23"/>
</linearGradient>
<clipPath id="clip0_5_164">
<rect width="36.7814" height="38.945" fill="white" transform="translate(0 0.527512)"/>
</clipPath>
</defs>
</svg>
